<?xml version="1.0" encoding="UTF-8"?>
<svg id="_Слой_1" data-name="Слой 1" xmlns="http://www.w3.org/2000/svg" viewBox="0 0 800 800">
  <defs>
    <style>
      .cls-1 {
        fill: #fff;
      }

      .cls-2 {
        fill: #0f0f0f;
      }
    </style>
  </defs>
  <circle cx="400" cy="400" r="400"/>
  <g>
    <path class="cls-2" d="M556.25,80.37c15.23,7.2,20.06,26.14,11.62,40.72-8.44,14.57-27.14,19.57-42.49,12.63-33.07-14.95-68.63-23.91-105.01-26.36-46.54-3.13-93.18,4.47-136.33,22.22-43.14,17.75-81.63,45.17-112.49,80.15-24.12,27.34-43.08,58.72-56.06,92.62-6.02,15.73-22.82,25.34-39.07,20.92-16.25-4.42-26.15-21.28-20.4-37.11,15.61-42.93,39.16-82.65,69.5-117.05,37.08-42.03,83.33-74.98,135.16-96.3,51.84-21.33,107.88-30.46,163.8-26.69,45.76,3.08,90.44,14.73,131.75,34.25Z"/>
    <path class="cls-2" d="M644.47,286.68c-16.6-32.61-39.56-61.56-67.52-85.17-27.96-23.6-60.36-41.38-95.29-52.28-34.93-10.9-71.69-14.71-108.11-11.19-36.42,3.51-71.77,14.28-103.98,31.65-32.2,17.38-60.6,41.02-83.53,69.53-22.93,28.51-39.93,61.33-49.99,96.51-4.93,17.23-8.15,34.87-9.63,52.64-.62,2.43-.95,4.97-.95,7.59v147.38c0,25.14-6.21,40.02-10.9,47.84-3.34,5.56-6.29,8.21-6.88,8.7-13.3,9.54-16.74,27.97-7.59,41.69,9.34,14.01,28.27,17.8,42.29,8.46,2.36-1.57,5.18-3.71,9.41-7.94,4.46-4.46,9.86-10.86,15.07-19.53,10.55-17.59,19.59-43.36,19.59-79.22v-137.19c.43-18.12,3.17-36.15,8.17-53.66,7.83-27.37,21.05-52.9,38.89-75.08,17.84-22.18,39.94-40.58,64.99-54.1,25.05-13.52,52.56-21.89,80.89-24.63,28.33-2.73,56.93.23,84.11,8.71s52.38,22.31,74.13,40.67c21.75,18.36,39.61,40.89,52.53,66.26,6.36,12.5,11.46,25.55,15.25,38.98,10.77,45.4,16.01,76.02,17.5,108.84,1.79,39.34-1.75,82.87-9.41,159.48-1.68,16.76,10.55,31.7,27.31,33.37,16.76,1.68,31.7-10.55,33.37-27.31,7.59-75.85,11.67-123.8,9.65-168.32-1.47-32.39-6.14-62.42-14.35-99.52-1.28-6.71-2.81-13.38-4.58-19.97-4.74-20-11.32-35.27-20.45-53.2Z"/>
    <path class="cls-2" d="M69.76,350.55c-16.42-3.02-32.31,7.85-33.96,24.46-4.28,43.02-.89,86.47,9.99,128.31,4.2,16.16,21.58,24.43,37.34,18.91,15.76-5.52,23.89-22.75,19.96-38.97-7.72-31.82-10.28-64.67-7.57-97.29,1.38-16.64-9.33-32.4-25.75-35.42Z"/>
    <path class="cls-2" d="M765.79,405.36c.27,16.69-14.26,29.3-30.91,28.19-16.65-1.11-29.09-15.53-29.63-32.21-1.37-42.38-11.56-84.13-30.03-122.55-18.48-38.41-44.74-72.43-76.99-99.96-12.69-10.83-16.19-29.55-6.67-43.25,9.53-13.7,28.45-17.18,41.32-6.56,40.73,33.63,73.8,75.76,96.8,123.57,23,47.82,35.27,99.95,36.12,152.76Z"/>
    <path class="cls-2" d="M582.7,419.25c-.74,16.83-17.22,27.36-33.69,23.84l-10.78-2.31c-16.47-3.52-26.51-19.88-27.59-36.69-.42-6.5-1.41-12.97-2.97-19.33-4-16.28-11.63-31.44-22.33-44.35-10.7-12.9-24.18-23.22-39.43-30.17-15.26-6.95-31.89-10.35-48.65-9.95-16.76.4-33.21,4.59-48.11,12.26-14.9,7.67-27.88,18.62-37.95,32.02-10.07,13.4-16.97,28.92-20.18,45.37-1.26,6.43-1.94,12.94-2.04,19.45-.28,16.84-9.53,33.66-25.81,37.97l-10.66,2.82c-16.28,4.3-33.24-5.43-34.79-22.2-1.59-17.27-.72-34.72,2.62-51.84,5.3-27.13,16.68-52.71,33.28-74.81,16.6-22.1,37.99-40.16,62.57-52.8,24.58-12.65,51.71-19.56,79.34-20.22,27.64-.66,55.06,4.95,80.22,16.41,25.16,11.46,47.39,28.47,65.03,49.75,17.64,21.28,30.23,46.29,36.81,73.13,4.16,16.94,5.86,34.33,5.1,51.65Z"/>
    <path class="cls-2" d="M277.95,517.93c0-16.84-13.65-30.49-30.49-30.49s-30.49,13.65-30.49,30.49c0,48.93-10.48,87.02-20.69,112.55-5.11,12.78-10.16,22.41-13.78,28.65-1.65,2.84-3.36,5.67-5.27,8.35-9.98,13.47-7.22,32.48,6.2,42.55,13.47,10.11,32.59,7.37,42.69-6.1,3.3-4.55,6.3-9.32,9.12-14.18,4.95-8.53,11.34-20.81,17.66-36.62,12.66-31.64,25.05-77.41,25.05-135.2Z"/>
    <path class="cls-2" d="M552.38,487.44c16.84,0,30.49,13.65,30.49,30.49,0,54.81-3.92,98.09-7.89,127.91-1.99,14.91-3.99,26.46-5.53,34.4-.83,4.27-1.68,8.55-2.73,12.77-4.09,16.34-20.65,26.3-36.98,22.21-16.32-4.08-26.25-20.61-22.2-36.93.79-3.19,1.41-6.42,2.04-9.64,1.32-6.82,3.13-17.19,4.96-30.87,3.65-27.36,7.35-67.94,7.35-119.85,0-16.84,13.65-30.49,30.49-30.49Z"/>
    <path class="cls-2" d="M394.55,394.37c22.17-7.59,24.75,11.94,27.61,30.87,6.42,42.49,1.73,110.22-6.85,196.41-1.67,16.76,10.57,31.69,27.32,33.36,16.76,1.66,31.69-10.57,33.36-27.32,8.37-84.11,14.24-160.01,6.46-211.55-3.81-25.21-11.78-51.67-30.99-68.73-22.02-19.56-50.04-19.85-76.68-10.73-13.07,4.47-24.96,10.75-34.54,20.12-9.9,9.68-15.66,21.02-18.76,32.85-2.94,11.21-3.49,22.82-3.4,33.52.1,10.61.9,22.74,1.52,34.54,2.5,47.18,4.04,115.04-39.21,215.94-6.63,15.48.54,33.4,16.02,40.04,15.48,6.64,33.41-.54,40.04-16.01,48.24-112.55,46.83-190.69,44.05-243.19-.7-13.12-1.36-23.02-1.44-31.86-.13-14.18.88-23.25,15.47-28.25Z"/>
  </g>
  <g>
    <g>
      <path class="cls-1" d="M756.16,393.77c-1.7-2-40.39-50.56-103.6-99.74-84.33-65.67-171.58-100.2-252.67-100.2s-168.5,34.69-252.67,100.2c-63.21,49.18-102.05,97.74-103.6,99.74-3.55,4.47-3.55,10.79,0,15.42,1.7,2,40.39,50.56,103.6,99.74,84.33,65.67,171.58,100.2,252.67,100.2s168.5-34.69,252.67-100.2c63.21-49.18,102.05-97.74,103.6-99.74,3.55-4.47,3.55-10.95,0-15.42ZM494.55,497.36c0,11.41-9.25,20.81-20.81,20.81h-147.69c-11.56,0-20.81-9.25-20.81-20.81v-121.32c0-11.25,8.79-20.35,19.89-20.81v-72.46c0-2.62.31-5.24.77-7.86,3.7-19.12,20.66-33.14,40.24-33.14h67.52c22.51,0,41.01,18.35,41.01,41.01v72.61c11.1.46,19.89,9.56,19.89,20.81v121.17ZM69.37,401.47c13.41-15.42,46.86-52.11,93.42-88.33,33.14-25.74,77.23-54.42,127.49-73.38-51.8,35.15-85.71,94.5-85.71,161.71s34.07,126.57,85.71,161.71c-50.26-18.96-94.35-47.64-127.49-73.38-46.56-36.23-80.01-72.92-93.42-88.33ZM637,489.81c-33.14,25.74-77.23,54.42-127.49,73.38,51.8-35.15,85.71-94.5,85.71-161.71s-34.07-126.57-85.71-161.71c50.26,18.96,94.35,47.64,127.49,73.38,46.56,36.23,80.01,72.76,93.42,88.33-13.41,15.42-46.86,52.11-93.42,88.33Z"/>
      <path class="cls-1" d="M433.66,266.43h-67.52c-7.71,0-14.49,5.55-16.03,13.1-.15,1.08-.31,2.16-.31,3.08v72.61h100.05v-72.46c.15-9.1-7.25-16.34-16.19-16.34Z"/>
      <path class="cls-1" d="M399.9,398.7c-15.72,0-28.52,12.8-28.52,28.67,0,.77,0,1.54.15,2.16v.77c0,.46.15.92.15,1.54,1.54,9.4,7.55,17.27,15.88,21.27v21.89c0,6.78,5.55,12.33,12.33,12.33s12.33-5.55,12.33-12.33v-21.89c8.79-4.16,15.11-12.64,16.19-22.82v-.77c.15-.77.15-1.54.15-2.16,0-16.03-12.8-28.67-28.67-28.67Z"/>
    </g>
    <g>
      <g>
        <path class="cls-1" d="M399.9,145.1c-6.78,0-12.33-5.55-12.33-12.33v-60.59c0-6.78,5.55-12.33,12.33-12.33s12.33,5.55,12.33,12.33v60.59c0,6.78-5.55,12.33-12.33,12.33Z"/>
        <g>
          <path class="cls-1" d="M165.57,215.86c-3.08,0-6.32-1.23-8.79-3.55l-48.25-48.25c-4.78-4.78-4.78-12.64,0-17.42,4.78-4.78,12.64-4.78,17.42,0l48.25,48.25c4.78,4.78,4.78,12.64,0,17.42-2.31,2.47-5.55,3.55-8.63,3.55Z"/>
          <path class="cls-1" d="M634.22,215.86c-3.08,0-6.32-1.23-8.79-3.55-4.78-4.78-4.78-12.64,0-17.42l48.25-48.25c4.78-4.78,12.64-4.78,17.42,0,4.78,4.78,4.78,12.64,0,17.42l-48.25,48.25c-2.31,2.47-5.55,3.55-8.63,3.55Z"/>
        </g>
      </g>
      <g>
        <path class="cls-1" d="M399.9,743.1c-6.78,0-12.33-5.55-12.33-12.33v-60.59c0-6.78,5.55-12.33,12.33-12.33s12.33,5.55,12.33,12.33v60.59c0,6.94-5.55,12.33-12.33,12.33Z"/>
        <g>
          <path class="cls-1" d="M117.32,660c-3.08,0-6.32-1.23-8.79-3.55-4.78-4.78-4.78-12.64,0-17.42l48.25-48.25c4.78-4.78,12.64-4.78,17.42,0,4.78,4.78,4.78,12.64,0,17.42l-48.25,48.25c-2.31,2.31-5.55,3.55-8.63,3.55Z"/>
          <path class="cls-1" d="M682.47,660c-3.08,0-6.32-1.23-8.79-3.55l-48.25-48.41c-4.78-4.78-4.78-12.64,0-17.42,4.78-4.78,12.64-4.78,17.42,0l48.41,48.25c4.78,4.78,4.78,12.64,0,17.42-2.47,2.47-5.55,3.7-8.79,3.7Z"/>
        </g>
      </g>
    </g>
  </g>
</svg>