<?xml version="1.0" encoding="UTF-8"?>
<svg id="_Слой_1" data-name="Слой 1" xmlns="http://www.w3.org/2000/svg" xmlns:xlink="http://www.w3.org/1999/xlink" viewBox="0 0 653.49 750">
  <defs>
    <style>
      .cls-1 {
        fill: #fff;
      }

      .cls-2 {
        fill: none;
      }

      .cls-3 {
        clip-path: url(#clippath);
      }
    </style>
    <clipPath id="clippath">
      <path class="cls-2" d="M326.75,0c39.05,37.5,156.25,112.5,234.38,112.5v150c0,150-117.2,375-234.38,487.5-117.2-112.5-234.38-337.5-234.38-487.5V112.5c78.15.02,195.32-74.98,234.38-112.5h0Z"/>
    </clipPath>
  </defs>
  <path d="M326.75,0c39.05,37.5,156.25,112.5,234.38,112.5v150c0,150-117.2,375-234.38,487.5-117.2-112.5-234.38-337.5-234.38-487.5V112.5c78.15.02,195.32-74.98,234.38-112.5h0Z"/>
  <g>
    <g>
      <path d="M651.07,367.98c-1.54-1.82-36.77-46.03-94.31-90.8-76.77-59.78-156.2-91.22-230.02-91.22s-153.39,31.58-230.02,91.22C39.19,321.95,3.82,366.16,2.42,367.98c-3.23,4.07-3.23,9.82,0,14.03,1.54,1.82,36.77,46.03,94.31,90.8,76.77,59.78,156.2,91.22,230.02,91.22s153.39-31.58,230.02-91.22c57.54-44.77,92.91-88.98,94.31-90.8,3.23-4.07,3.23-9.96,0-14.03ZM412.92,462.29c0,10.39-8.42,18.95-18.95,18.95h-134.45c-10.53,0-18.95-8.42-18.95-18.95v-110.45c0-10.24,8-18.52,18.1-18.95v-65.96c0-2.39.28-4.77.7-7.16,3.37-17.4,18.81-30.17,36.63-30.17h61.47c20.49,0,37.33,16.7,37.33,37.33v66.1c10.1.42,18.1,8.7,18.1,18.95v110.31ZM25.86,375c12.21-14.03,42.66-47.44,85.05-80.41,30.17-23.44,70.31-49.54,116.06-66.8-47.15,32-78.03,86.03-78.03,147.22s31.02,115.22,78.03,147.22c-45.75-17.26-85.89-43.37-116.06-66.8-42.38-32.98-72.84-66.38-85.05-80.41ZM542.59,455.41c-30.17,23.44-70.31,49.54-116.06,66.8,47.15-32,78.03-86.03,78.03-147.22s-31.02-115.22-78.03-147.22c45.75,17.26,85.89,43.37,116.06,66.8,42.38,32.98,72.84,66.24,85.05,80.41-12.21,14.03-42.66,47.43-85.05,80.41Z"/>
      <path d="M357.48,252.06h-61.47c-7.02,0-13.19,5.05-14.6,11.93-.14.98-.28,1.96-.28,2.81v66.1h91.08v-65.96c.14-8.28-6.6-14.88-14.74-14.88Z"/>
      <path d="M326.75,372.47c-14.31,0-25.96,11.65-25.96,26.1,0,.7,0,1.4.14,1.96v.7c0,.42.14.84.14,1.4,1.4,8.56,6.88,15.72,14.46,19.37v19.93c0,6.17,5.05,11.23,11.23,11.23s11.23-5.05,11.23-11.23v-19.93c8-3.79,13.75-11.51,14.74-20.77v-.7c.14-.7.14-1.4.14-1.96,0-14.6-11.65-26.1-26.1-26.1Z"/>
    </g>
    <g>
      <g>
        <path d="M326.75,141.61c-6.17,0-11.23-5.05-11.23-11.23v-55.15c0-6.17,5.05-11.23,11.23-11.23s11.23,5.05,11.23,11.23v55.15c0,6.17-5.05,11.23-11.23,11.23Z"/>
        <g>
          <path d="M113.43,206.03c-2.81,0-5.75-1.12-8-3.23l-43.93-43.93c-4.35-4.35-4.35-11.51,0-15.86,4.35-4.35,11.51-4.35,15.86,0l43.93,43.93c4.35,4.35,4.35,11.51,0,15.86-2.11,2.25-5.05,3.23-7.86,3.23Z"/>
          <path d="M540.06,206.03c-2.81,0-5.75-1.12-8-3.23-4.35-4.35-4.35-11.51,0-15.86l43.93-43.93c4.35-4.35,11.51-4.35,15.86,0,4.35,4.35,4.35,11.51,0,15.86l-43.93,43.93c-2.11,2.25-5.05,3.23-7.86,3.23Z"/>
        </g>
      </g>
      <g>
        <path d="M326.75,685.99c-6.17,0-11.23-5.05-11.23-11.23v-55.15c0-6.17,5.05-11.23,11.23-11.23s11.23,5.05,11.23,11.23v55.15c0,6.32-5.05,11.23-11.23,11.23Z"/>
        <g>
          <path d="M69.5,610.35c-2.81,0-5.75-1.12-8-3.23-4.35-4.35-4.35-11.51,0-15.86l43.93-43.93c4.35-4.35,11.51-4.35,15.86,0,4.35,4.35,4.35,11.51,0,15.86l-43.93,43.93c-2.11,2.11-5.05,3.23-7.86,3.23Z"/>
          <path d="M583.99,610.35c-2.81,0-5.75-1.12-8-3.23l-43.93-44.07c-4.35-4.35-4.35-11.51,0-15.86,4.35-4.35,11.51-4.35,15.86,0l44.07,43.93c4.35,4.35,4.35,11.51,0,15.86-2.25,2.25-5.05,3.37-8,3.37Z"/>
        </g>
      </g>
    </g>
  </g>
  <g class="cls-3">
    <g>
      <g>
        <path class="cls-1" d="M651.07,367.98c-1.54-1.82-36.77-46.03-94.31-90.8-76.77-59.78-156.2-91.22-230.02-91.22s-153.39,31.58-230.02,91.22C39.19,321.95,3.82,366.16,2.42,367.98c-3.23,4.07-3.23,9.82,0,14.03,1.54,1.82,36.77,46.03,94.31,90.8,76.77,59.78,156.2,91.22,230.02,91.22s153.39-31.58,230.02-91.22c57.54-44.77,92.91-88.98,94.31-90.8,3.23-4.07,3.23-9.96,0-14.03ZM412.92,462.29c0,10.39-8.42,18.95-18.95,18.95h-134.45c-10.53,0-18.95-8.42-18.95-18.95v-110.45c0-10.24,8-18.52,18.1-18.95v-65.96c0-2.39.28-4.77.7-7.16,3.37-17.4,18.81-30.17,36.63-30.17h61.47c20.49,0,37.33,16.7,37.33,37.33v66.1c10.1.42,18.1,8.7,18.1,18.95v110.31ZM25.86,375c12.21-14.03,42.66-47.44,85.05-80.41,30.17-23.44,70.31-49.54,116.06-66.8-47.15,32-78.03,86.03-78.03,147.22s31.02,115.22,78.03,147.22c-45.75-17.26-85.89-43.37-116.06-66.8-42.38-32.98-72.84-66.38-85.05-80.41ZM542.59,455.41c-30.17,23.44-70.31,49.54-116.06,66.8,47.15-32,78.03-86.03,78.03-147.22s-31.02-115.22-78.03-147.22c45.75,17.26,85.89,43.37,116.06,66.8,42.38,32.98,72.84,66.24,85.05,80.41-12.21,14.03-42.66,47.43-85.05,80.41Z"/>
        <path class="cls-1" d="M357.48,252.06h-61.47c-7.02,0-13.19,5.05-14.6,11.93-.14.98-.28,1.96-.28,2.81v66.1h91.08v-65.96c.14-8.28-6.6-14.88-14.74-14.88Z"/>
        <path class="cls-1" d="M326.75,372.47c-14.31,0-25.96,11.65-25.96,26.1,0,.7,0,1.4.14,1.96v.7c0,.42.14.84.14,1.4,1.4,8.56,6.88,15.72,14.46,19.37v19.93c0,6.17,5.05,11.23,11.23,11.23s11.23-5.05,11.23-11.23v-19.93c8-3.79,13.75-11.51,14.74-20.77v-.7c.14-.7.14-1.4.14-1.96,0-14.6-11.65-26.1-26.1-26.1Z"/>
      </g>
      <g>
        <g>
          <path class="cls-1" d="M326.75,141.61c-6.17,0-11.23-5.05-11.23-11.23v-55.15c0-6.17,5.05-11.23,11.23-11.23s11.23,5.05,11.23,11.23v55.15c0,6.17-5.05,11.23-11.23,11.23Z"/>
          <g>
            <path class="cls-1" d="M113.43,206.03c-2.81,0-5.75-1.12-8-3.23l-43.93-43.93c-4.35-4.35-4.35-11.51,0-15.86,4.35-4.35,11.51-4.35,15.86,0l43.93,43.93c4.35,4.35,4.35,11.51,0,15.86-2.11,2.25-5.05,3.23-7.86,3.23Z"/>
            <path class="cls-1" d="M540.06,206.03c-2.81,0-5.75-1.12-8-3.23-4.35-4.35-4.35-11.51,0-15.86l43.93-43.93c4.35-4.35,11.51-4.35,15.86,0,4.35,4.35,4.35,11.51,0,15.86l-43.93,43.93c-2.11,2.25-5.05,3.23-7.86,3.23Z"/>
          </g>
        </g>
        <g>
          <path class="cls-1" d="M326.75,685.99c-6.17,0-11.23-5.05-11.23-11.23v-55.15c0-6.17,5.05-11.23,11.23-11.23s11.23,5.05,11.23,11.23v55.15c0,6.32-5.05,11.23-11.23,11.23Z"/>
          <g>
            <path class="cls-1" d="M69.5,610.35c-2.81,0-5.75-1.12-8-3.23-4.35-4.35-4.35-11.51,0-15.86l43.93-43.93c4.35-4.35,11.51-4.35,15.86,0,4.35,4.35,4.35,11.51,0,15.86l-43.93,43.93c-2.11,2.11-5.05,3.23-7.86,3.23Z"/>
            <path class="cls-1" d="M583.99,610.35c-2.81,0-5.75-1.12-8-3.23l-43.93-44.07c-4.35-4.35-4.35-11.51,0-15.86,4.35-4.35,11.51-4.35,15.86,0l44.07,43.93c4.35,4.35,4.35,11.51,0,15.86-2.25,2.25-5.05,3.37-8,3.37Z"/>
          </g>
        </g>
      </g>
    </g>
  </g>
</svg>