<?xml version="1.0" encoding="UTF-8"?>
<svg id="_2" data-name="2" xmlns="http://www.w3.org/2000/svg" viewBox="0 0 800 800">
  <defs>
    <style>
      .cls-1 {
        fill: #2d2d2d;
        fill-rule: evenodd;
      }

      .cls-2 {
        fill: #fff;
      }
    </style>
  </defs>
  <circle cx="400" cy="400" r="400"/>
  <g>
    <path class="cls-1" d="M400,180.09c-121.47,0-219.94,98.47-219.94,219.94s98.47,219.94,219.94,219.94,219.94-98.47,219.94-219.94-98.47-219.94-219.94-219.94ZM400,595.52c-107.98,0-195.5-87.54-195.5-195.5s87.52-195.5,195.5-195.5,195.5,87.54,195.5,195.5-87.52,195.5-195.5,195.5Z"/>
    <path class="cls-1" d="M778.78,387.78h-122.19c-6.76,0-12.22,5.46-12.22,12.22s5.46,12.22,12.22,12.22h122.19c6.76,0,12.22-5.46,12.22-12.22s-5.46-12.22-12.22-12.22Z"/>
    <path class="cls-1" d="M148.99,454.62l-47.2,12.65c-6.52,1.76-10.4,8.46-8.64,14.98,1.75,6.51,8.43,10.39,14.97,8.63l47.2-12.65c6.51-1.75,10.39-8.43,8.64-14.97-1.75-6.51-8.46-10.39-14.97-8.64Z"/>
    <path class="cls-1" d="M611.63,277.81c3.38,5.85,10.85,7.86,16.7,4.47l105.81-61.09c5.85-3.37,7.86-10.85,4.46-16.69-3.36-5.85-10.84-7.84-16.68-4.46l-105.81,61.09c-5.85,3.38-7.84,10.83-4.48,16.68Z"/>
    <path class="cls-1" d="M227.2,572.81c-4.77-4.78-12.5-4.75-17.28,0l-34.55,34.55c-4.78,4.78-4.77,12.52.01,17.29,4.77,4.78,12.49,4.77,17.27-.01l34.55-34.55c4.78-4.75,4.78-12.5,0-17.28Z"/>
    <path class="cls-1" d="M522.19,188.37c5.85,3.37,13.32,1.38,16.7-4.47l61.09-105.81c3.38-5.85,1.38-13.33-4.48-16.7-5.84-3.37-13.29-1.37-16.68,4.47l-61.08,105.83c-3.4,5.85-1.39,13.31,4.45,16.69Z"/>
    <path class="cls-1" d="M336.76,636.04c-6.5-1.75-13.2,2.15-14.97,8.64l-12.65,47.2c-1.75,6.54,2.15,13.23,8.66,14.98,6.51,1.76,13.2-2.11,14.94-8.65l12.65-47.2c1.77-6.49-2.1-13.2-8.64-14.97Z"/>
    <path class="cls-1" d="M400,155.63c6.77,0,12.23-5.45,12.24-12.22V21.22c0-6.76-5.46-12.22-12.24-12.22s-12.19,5.46-12.21,12.22v122.19c.01,6.76,5.47,12.22,12.21,12.22Z"/>
    <path class="cls-1" d="M478.22,644.68c-1.72-6.5-8.42-10.39-14.97-8.64-6.51,1.75-10.36,8.46-8.64,14.97l12.65,47.2c1.76,6.54,8.47,10.39,14.99,8.64s10.37-8.42,8.61-14.97l-12.65-47.2Z"/>
    <path class="cls-1" d="M261.16,183.87c3.36,5.85,10.84,7.86,16.65,4.48,5.86-3.38,7.88-10.84,4.5-16.7l-61.09-105.81c-3.37-5.84-10.85-7.84-16.72-4.46-5.83,3.36-7.83,10.84-4.46,16.68l61.12,105.81Z"/>
    <path class="cls-1" d="M590.1,572.8c-4.74-4.77-12.49-4.77-17.28,0-4.78,4.77-4.74,12.51,0,17.28l34.55,34.55c4.79,4.79,12.52,4.75,17.29-.01,4.78-4.77,4.78-12.48-.01-17.27l-34.55-34.55Z"/>
    <path class="cls-1" d="M65.87,221.18l105.84,61.08c5.83,3.37,13.29,1.38,16.65-4.45,3.38-5.85,1.41-13.32-4.45-16.7l-105.83-61.09c-5.84-3.38-13.32-1.38-16.7,4.48-3.35,5.83-1.36,13.31,4.48,16.68Z"/>
    <path class="cls-1" d="M644.7,478.2l47.2,12.65c6.54,1.77,13.22-2.15,14.97-8.66,1.76-6.5-2.1-13.18-8.64-14.94l-47.2-12.65c-6.49-1.77-13.21,2.11-14.97,8.64-1.76,6.52,2.15,13.21,8.64,14.97Z"/>
    <path class="cls-1" d="M155.62,400c.01-6.77-5.44-12.22-12.19-12.24l-122.21.02c-6.74,0-12.22,5.44-12.22,12.22.01,6.73,5.47,12.22,12.23,12.22l122.2-.02c6.73,0,12.21-5.45,12.19-12.19Z"/>
    <path class="cls-1" d="M651.03,345.37l47.2-12.65c6.54-1.75,10.39-8.47,8.63-14.99-1.74-6.49-8.41-10.36-14.96-8.61l-47.2,12.65c-6.51,1.72-10.39,8.44-8.64,14.97,1.72,6.52,8.46,10.36,14.97,8.64Z"/>
    <path class="cls-1" d="M188.37,522.19c-3.36-5.86-10.83-7.87-16.68-4.5l-105.83,61.12c-5.84,3.37-7.87,10.83-4.48,16.69,3.38,5.83,10.86,7.83,16.7,4.46l105.81-61.12c5.83-3.36,7.86-10.8,4.47-16.65Z"/>
    <path class="cls-1" d="M572.82,227.18c4.75,4.79,12.49,4.74,17.28,0l34.55-34.55c4.79-4.79,4.77-12.51-.02-17.29-4.74-4.77-12.48-4.78-17.25.01l-34.55,34.55c-4.79,4.74-4.77,12.51,0,17.28Z"/>
    <path class="cls-1" d="M277.81,611.63c-5.85-3.38-13.29-1.38-16.68,4.45l-61.09,105.85c-3.36,5.84-1.41,13.29,4.46,16.68,5.85,3.35,13.32,1.34,16.7-4.48l61.07-105.84c3.37-5.82,1.41-13.27-4.46-16.65Z"/>
    <path class="cls-1" d="M463.27,163.93c6.49,1.77,13.17-2.15,14.97-8.64l12.65-47.2c1.75-6.54-2.15-13.23-8.66-14.97-6.49-1.76-13.2,2.1-14.94,8.64l-12.65,47.2c-1.8,6.49,2.13,13.21,8.64,14.97Z"/>
    <path class="cls-1" d="M400,644.38c-6.76-.02-12.19,5.45-12.22,12.19l.02,122.24c0,6.72,5.41,12.19,12.19,12.19s12.22-5.49,12.23-12.22l-.04-122.21c0-6.73-5.41-12.19-12.19-12.19Z"/>
    <path class="cls-1" d="M321.8,155.3c1.7,6.51,8.44,10.39,14.97,8.64,6.5-1.72,10.34-8.44,8.64-14.97l-12.65-47.2c-1.77-6.54-8.47-10.4-14.99-8.63-6.49,1.74-10.39,8.41-8.61,14.96l12.65,47.2Z"/>
    <path class="cls-1" d="M538.84,616.11c-3.36-5.84-10.79-7.87-16.65-4.46-5.85,3.35-7.83,10.81-4.48,16.67l61.14,105.83c3.36,5.84,10.79,7.87,16.65,4.47,5.85-3.38,7.84-10.86,4.48-16.7l-61.14-105.8Z"/>
    <path class="cls-1" d="M209.91,227.18c4.73,4.81,12.5,4.77,17.28,0,4.78-4.74,4.73-12.48,0-17.28l-34.55-34.55c-4.8-4.79-12.52-4.77-17.29.02-4.77,4.74-4.79,12.48.01,17.25l34.55,34.55Z"/>
    <path class="cls-1" d="M734.16,578.8l-105.85-61.06c-5.84-3.37-13.28-1.42-16.65,4.47-3.4,5.83-1.37,13.27,4.45,16.67l105.86,61.08c5.83,3.36,13.27,1.41,16.65-4.46,3.36-5.85,1.36-13.32-4.46-16.7Z"/>
    <path class="cls-1" d="M155.31,321.79l-47.21-12.66c-6.55-1.76-13.23,2.14-14.97,8.65-1.76,6.49,2.09,13.2,8.64,14.97l47.2,12.63c6.49,1.78,13.21-2.14,14.97-8.64,1.77-6.48-2.14-13.16-8.63-14.96Z"/>
  </g>
  <g>
    <path class="cls-2" d="M667.1,390.44c-9.56-1.9-76.6-21.72-107.88-37.35-50.71-25.36-104.05-59.71-195.45-59.71s-163,47.07-210.36,78.22c-19.19,12.63-35.75,23.52-45.31,25.44-4.61.92-7.92,4.96-7.92,9.66s3.32,8.75,7.92,9.67c9.56,1.91,26.12,12.82,45.31,25.43,21.64,14.24,48.36,31.79,79.7,46.65,45.94,25.49,185.41,103.14,221.12,126,51.79,33.14,138.15,22.1,159.33-34.9,2.38-4.21,3.74-9.07,3.74-14.25,0-16.03-13-29.03-29.04-29.03s-29.04,13.01-29.04,29.03c0,10.96,6.06,20.47,15.01,25.43-29.74,14.77-82.12-1.2-108.68-16.15-21.17-11.9-65.66-36.52-98.43-54.61,89.7-1.01,156.2-42.04,205.5-68.59,29.04-15.64,84.92-39.69,94.48-41.61,4.6-.91,7.92-4.96,7.92-9.66s-3.32-8.75-7.92-9.67ZM363.28,480.26c-110.01,0-170.8-67.21-202.54-73.56,31.74-6.34,93.01-82.65,203.02-82.65s171.28,76.31,203.01,82.65c-31.73,6.35-93.48,73.56-203.49,73.56Z"/>
    <path class="cls-2" d="M292.28,402.24c0,39.47,32.01,71.48,71.49,71.48s71.48-32.01,71.48-71.48-32-71.49-71.48-71.49c-39.48,0-71.49,32-71.49,71.49Z"/>
    <path class="cls-2" d="M643.27,269.79c-70.64-23.56-166.69-95.41-282.85-102.11-116.16-6.71-194.34,37.98-265.82,82.66-29.04,20.11,2.23,71.48,33.51,51.37,36.29-23.33,81.16-78.34,217.42-78.34s306.68,138.74,370.07,71.63c8.93-6.69-27.65-10.33-72.32-25.21Z"/>
  </g>
</svg>