<?xml version="1.0" encoding="UTF-8"?>
<svg id="_Слой_2" data-name="Слой 2" xmlns="http://www.w3.org/2000/svg" xmlns:xlink="http://www.w3.org/1999/xlink" viewBox="0 0 112.73 126">
  <defs>
    <style>
      .cls-1 {
        fill: #e5ddeb;
      }

      .cls-2 {
        clip-path: url(#clippath-34);
      }

      .cls-3 {
        fill: #e4e6f0;
      }

      .cls-4 {
        clip-path: url(#clippath-21);
      }

      .cls-5 {
        fill: #edecf8;
      }

      .cls-6 {
        clip-path: url(#clippath-6);
      }

      .cls-7 {
        clip-path: url(#clippath-7);
      }

      .cls-8 {
        clip-path: url(#clippath-17);
      }

      .cls-9 {
        clip-path: url(#clippath-31);
      }

      .cls-10 {
        fill: #9d9daf;
      }

      .cls-11 {
        clip-path: url(#clippath-15);
      }

      .cls-12 {
        clip-path: url(#clippath-33);
      }

      .cls-13 {
        fill: #ffb700;
      }

      .cls-14 {
        clip-path: url(#clippath-18);
      }

      .cls-15 {
        fill: #d1d1da;
      }

      .cls-16 {
        clip-path: url(#clippath-4);
      }

      .cls-17 {
        fill: url(#linear-gradient-2);
      }

      .cls-18 {
        fill: #595d71;
      }

      .cls-19 {
        clip-path: url(#clippath-22);
      }

      .cls-20 {
        clip-path: url(#clippath-23);
      }

      .cls-21 {
        fill: #a0a0a5;
      }

      .cls-22 {
        fill: #f7d736;
      }

      .cls-23 {
        fill: #7f82ab;
      }

      .cls-24 {
        fill: #fbc70e;
      }

      .cls-25 {
        fill: #666689;
      }

      .cls-26 {
        clip-path: url(#clippath-9);
      }

      .cls-27 {
        fill: #38373e;
      }

      .cls-28 {
        clip-path: url(#clippath-10);
      }

      .cls-29 {
        clip-path: url(#clippath-25);
      }

      .cls-30 {
        clip-path: url(#clippath-27);
      }

      .cls-31 {
        clip-path: url(#clippath-11);
      }

      .cls-32 {
        fill: none;
      }

      .cls-33 {
        fill: #424554;
      }

      .cls-34 {
        fill: #b8b8c3;
      }

      .cls-35 {
        fill: #7c7b89;
      }

      .cls-36 {
        fill: url(#radial-gradient);
      }

      .cls-37 {
        fill: url(#radial-gradient-3);
      }

      .cls-38 {
        fill: #8a8aa6;
      }

      .cls-39 {
        clip-path: url(#clippath-28);
      }

      .cls-40 {
        fill: url(#New_Gradient_Swatch-2);
      }

      .cls-41 {
        fill: url(#linear-gradient-3);
      }

      .cls-42 {
        fill: #e3ddfc;
      }

      .cls-43 {
        clip-path: url(#clippath-1);
      }

      .cls-44 {
        fill: #666b82;
      }

      .cls-45 {
        isolation: isolate;
      }

      .cls-46 {
        fill: #b1a9cb;
      }

      .cls-47 {
        clip-path: url(#clippath-5);
      }

      .cls-48 {
        clip-path: url(#clippath-20);
      }

      .cls-49 {
        clip-path: url(#clippath-8);
      }

      .cls-50 {
        clip-path: url(#clippath-3);
      }

      .cls-51 {
        clip-path: url(#clippath-26);
      }

      .cls-52 {
        fill: url(#radial-gradient-2);
      }

      .cls-53 {
        fill: #e19908;
      }

      .cls-54 {
        clip-path: url(#clippath-12);
      }

      .cls-55 {
        fill: #222229;
      }

      .cls-56 {
        clip-path: url(#clippath-14);
      }

      .cls-57 {
        fill: #3b3b45;
      }

      .cls-58 {
        clip-path: url(#clippath-30);
      }

      .cls-59 {
        clip-path: url(#clippath-19);
      }

      .cls-60 {
        fill: #f8f9f3;
      }

      .cls-61 {
        fill: url(#New_Gradient_Swatch);
      }

      .cls-62 {
        fill: #ffc400;
      }

      .cls-63 {
        clip-path: url(#clippath-32);
      }

      .cls-64 {
        fill: #efeff5;
      }

      .cls-65 {
        fill: #dddde5;
      }

      .cls-66 {
        fill: url(#New_Gradient_Swatch-3);
      }

      .cls-67 {
        fill: #4a4a5b;
      }

      .cls-68 {
        fill: #2e2e37;
      }

      .cls-69 {
        clip-path: url(#clippath-16);
      }

      .cls-70 {
        clip-path: url(#clippath-2);
      }

      .cls-71 {
        clip-path: url(#clippath-29);
      }

      .cls-72 {
        fill: #c9bfd5;
      }

      .cls-73 {
        fill: #808098;
      }

      .cls-74 {
        clip-path: url(#clippath-13);
      }

      .cls-75 {
        fill: url(#linear-gradient);
      }

      .cls-76 {
        fill: #727791;
      }

      .cls-77 {
        clip-path: url(#clippath-24);
      }

      .cls-78 {
        clip-path: url(#clippath);
      }

      .cls-79 {
        fill: #868596;
      }

      .cls-80 {
        fill: #ffde38;
      }

      .cls-81 {
        fill: #19121b;
      }
    </style>
    <clipPath id="clippath">
      <path class="cls-65" d="M58.23,38.88l11.72,6.81c-.42-.25-1.01-.21-1.65.16l-11.72-6.81c.64-.37,1.23-.41,1.65-.16Z"/>
    </clipPath>
    <clipPath id="clippath-1">
      <path class="cls-65" d="M66.67,51.34l-11.72-6.81c-.42-.24-.67-.76-.68-1.49,0-1.47,1.03-3.26,2.31-4l11.72,6.81c-1.28.74-2.32,2.53-2.31,4,0,.73.26,1.25.68,1.49Z"/>
    </clipPath>
    <clipPath id="clippath-2">
      <path class="cls-27" d="M106.37,90.57v1.94c0-.56,0-1.87.01-2.42v-.94c0,.56,0,.87-.01,1.42Z"/>
    </clipPath>
    <clipPath id="clippath-3">
      <path class="cls-34" d="M60.18,40.74v.81c0,.23-.16.46-.45.63-.6.35-1.58.35-2.19,0-.3-.18-.46-.41-.46-.64v-.81c0,.23.16.46.46.64.61.35,1.59.35,2.19,0,.3-.17.45-.4.45-.63Z"/>
    </clipPath>
    <clipPath id="clippath-4">
      <path class="cls-57" d="M59.59,39.73v.94c0,.14-.1.28-.28.39-.38.22-.98.22-1.36,0-.19-.11-.28-.25-.28-.4v-.94c0,.14.1.29.29.4.38.22.99.22,1.36,0,.19-.11.28-.25.28-.39Z"/>
    </clipPath>
    <clipPath id="clippath-5">
      <path class="cls-57" d="M59.59,38.7v.94c0,.14-.1.28-.28.39-.38.22-.98.22-1.36,0-.19-.11-.28-.25-.28-.4v-.94c0,.14.1.29.29.4.38.22.99.22,1.36,0,.19-.11.28-.25.28-.39Z"/>
    </clipPath>
    <clipPath id="clippath-6">
      <path class="cls-57" d="M59.59,37.46v.94c0,.14-.1.28-.28.39-.38.22-.98.22-1.36,0-.19-.11-.28-.25-.28-.4v-.94c0,.14.1.29.29.4.38.22.99.22,1.36,0,.19-.11.28-.25.28-.39Z"/>
    </clipPath>
    <clipPath id="clippath-7">
      <path class="cls-57" d="M59.13,36.3l.75,1.22c0,.18-.12.37-.36.51-.49.28-1.28.28-1.77,0-.25-.14-.37-.33-.37-.52l.75-1.22c0,.07.05.15.15.21.2.11.51.11.71,0,.1-.06.15-.13.15-.2Z"/>
    </clipPath>
    <clipPath id="clippath-8">
      <path class="cls-3" d="M59.13,35.77v.52c0,.07-.05.15-.14.2-.2.11-.51.11-.71,0-.1-.06-.15-.13-.15-.21v-.49c0,.07.05.15.15.21.2.11.51.11.71,0,.1-.06.14-.16.14-.23Z"/>
    </clipPath>
    <clipPath id="clippath-9">
      <path class="cls-32" d="M63.98,50.11l18.97,11.02c-1.21-.7-2.88-.6-4.73.46l-18.97-11.02c1.85-1.07,3.52-1.17,4.73-.46Z"/>
    </clipPath>
    <clipPath id="clippath-10">
      <path class="cls-32" d="M73.53,77.36l-18.97-11.02c-1.19-.69-1.93-2.17-1.94-4.27-.01-4.22,2.96-9.37,6.63-11.49l18.97,11.02c-3.67,2.12-6.64,7.27-6.63,11.49,0,2.1.75,3.57,1.94,4.27Z"/>
    </clipPath>
    <clipPath id="clippath-11">
      <path class="cls-32" d="M79.02,56.71l1.9,1.1c-1.39-.81-3.31-.69-5.43.53l-1.9-1.1c2.12-1.22,4.04-1.34,5.43-.53Z"/>
    </clipPath>
    <clipPath id="clippath-12">
      <path class="cls-32" d="M70.11,76.41l-1.9-1.1c-1.37-.8-2.22-2.49-2.23-4.9-.01-4.84,3.39-10.74,7.61-13.18l1.9,1.1c-4.22,2.43-7.62,8.33-7.61,13.18,0,2.41.86,4.1,2.23,4.9Z"/>
    </clipPath>
    <clipPath id="clippath-13">
      <path class="cls-32" d="M80.85,58.94l18.97,11.02c-1.26-.73-3.01-.63-4.94.48l-18.97-11.02c1.93-1.11,3.68-1.22,4.94-.48Z"/>
    </clipPath>
    <clipPath id="clippath-14">
      <path class="cls-32" d="M89.98,86.89l-18.97-11.02c-1.25-.72-2.02-2.26-2.03-4.45-.01-4.41,3.09-9.78,6.92-11.99l18.97,11.02c-3.84,2.21-6.93,7.58-6.92,11.99,0,2.19.78,3.73,2.03,4.45Z"/>
    </clipPath>
    <clipPath id="clippath-15">
      <path class="cls-32" d="M100.63,69.22l1.9,1.1c-1.39-.81-3.31-.69-5.43.53l-1.9-1.1c2.12-1.22,4.04-1.34,5.43-.53Z"/>
    </clipPath>
    <clipPath id="clippath-16">
      <path class="cls-32" d="M91.71,88.93l-1.9-1.1c-1.37-.8-2.22-2.49-2.23-4.9-.01-4.84,3.39-10.74,7.61-13.18l1.9,1.1c-4.22,2.43-7.62,8.33-7.61,13.18,0,2.41.86,4.1,2.23,4.9Z"/>
    </clipPath>
    <clipPath id="clippath-17">
      <path class="cls-32" d="M102.16,71.28l6.64,3.86c-1.26-.73-3.01-.63-4.94.48l-6.64-3.86c1.93-1.11,3.68-1.22,4.94-.48Z"/>
    </clipPath>
    <clipPath id="clippath-18">
      <path class="cls-32" d="M98.96,92.07l-6.64-3.86c-1.25-.72-2.02-2.26-2.03-4.45-.01-4.41,3.09-9.78,6.92-11.99l6.64,3.86c-3.84,2.21-6.93,7.58-6.92,11.99,0,2.19.78,3.73,2.03,4.45Z"/>
    </clipPath>
    <clipPath id="clippath-19">
      <path class="cls-65" d="M39.67,49.65l11.72,6.81c-.42-.25-1.01-.21-1.65.16l-11.72-6.81c.64-.37,1.23-.41,1.65-.16Z"/>
    </clipPath>
    <clipPath id="clippath-20">
      <path class="cls-65" d="M48.1,62.11l-11.72-6.81c-.42-.24-.67-.76-.68-1.49,0-1.47,1.03-3.26,2.31-4l11.72,6.81c-1.28.74-2.32,2.53-2.31,4,0,.73.26,1.25.68,1.49Z"/>
    </clipPath>
    <clipPath id="clippath-21">
      <path class="cls-32" d="M52.85,29.45l-.04,13.67c0,.43-.28.86-.85,1.19-1.14.66-2.99.66-4.14,0-.58-.33-.87-.77-.86-1.21l.04-13.67c0,.44.29.87.86,1.21,1.15.66,3,.66,4.14,0,.57-.33.85-.76.85-1.19Z"/>
    </clipPath>
    <clipPath id="clippath-22">
      <path class="cls-32" d="M58.97,33.5l-.04,13.67c0,.43-.28.86-.85,1.19-1.14.66-2.99.66-4.14,0-.58-.33-.87-.77-.86-1.21l.04-13.67c0,.44.29.87.86,1.21,1.15.66,3,.66,4.14,0,.57-.33.85-.76.85-1.19Z"/>
    </clipPath>
    <clipPath id="clippath-23">
      <path class="cls-34" d="M43.32,46.04v.63c0,.18-.12.36-.35.49-.47.27-1.23.27-1.71,0-.24-.14-.36-.32-.36-.5v-.63c0,.18.12.36.36.5.47.27,1.24.27,1.71,0,.23-.14.35-.31.35-.49Z"/>
    </clipPath>
    <linearGradient id="linear-gradient" x1="-617.98" y1="45.07" x2="-614.97" y2="45.07" gradientTransform="translate(658.59)" gradientUnits="userSpaceOnUse">
      <stop offset=".01" stop-color="#938fa3"/>
      <stop offset=".28" stop-color="#938fa3"/>
      <stop offset=".61" stop-color="#646370"/>
      <stop offset="1" stop-color="#646370"/>
    </linearGradient>
    <linearGradient id="New_Gradient_Swatch" data-name="New Gradient Swatch" x1="-618.13" y1="43.15" x2="-614.83" y2="43.15" gradientTransform="translate(658.59)" gradientUnits="userSpaceOnUse">
      <stop offset="0" stop-color="#938fa3"/>
      <stop offset=".06" stop-color="#aba9c0"/>
      <stop offset=".12" stop-color="#c1c0da"/>
      <stop offset=".18" stop-color="#d0d0ed"/>
      <stop offset=".25" stop-color="#d9daf8"/>
      <stop offset=".32" stop-color="#dddefc"/>
      <stop offset=".32" stop-color="#dcddfa"/>
      <stop offset=".56" stop-color="#a8a9bf"/>
      <stop offset=".75" stop-color="#828394"/>
      <stop offset=".91" stop-color="#6b6c79"/>
      <stop offset="1" stop-color="#636470"/>
    </linearGradient>
    <radialGradient id="radial-gradient" cx="-700.31" cy="21.03" fx="-700.31" fy="21.03" r="3.39" gradientTransform="translate(635.15 22.27) scale(.85)" gradientUnits="userSpaceOnUse">
      <stop offset=".05" stop-color="#dddefc"/>
      <stop offset=".06" stop-color="#dcddfa"/>
      <stop offset=".38" stop-color="#a8a9bf"/>
      <stop offset=".66" stop-color="#828394"/>
      <stop offset=".87" stop-color="#6b6c79"/>
      <stop offset="1" stop-color="#636470"/>
    </radialGradient>
    <clipPath id="clippath-24">
      <path class="cls-35" d="M42.52,39.23v.18c0,.06-.04.12-.12.16-.16.09-.41.09-.57,0-.08-.05-.12-.11-.12-.17v-.18c0,.06.04.12.12.17.16.09.41.09.57,0,.08-.04.12-.1.12-.16Z"/>
    </clipPath>
    <clipPath id="clippath-25">
      <path class="cls-34" d="M52.41,51.27v.63c0,.18-.12.36-.35.49-.47.27-1.23.27-1.71,0-.24-.14-.36-.32-.36-.5v-.63c0,.18.12.36.36.5.47.27,1.24.27,1.71,0,.23-.14.35-.31.35-.49Z"/>
    </clipPath>
    <linearGradient id="linear-gradient-2" x1="-608.89" y1="50.3" x2="-605.88" y2="50.3" xlink:href="#linear-gradient"/>
    <linearGradient id="New_Gradient_Swatch-2" data-name="New Gradient Swatch" x1="-609.04" y1="48.39" x2="-605.74" y2="48.39" xlink:href="#New_Gradient_Swatch"/>
    <radialGradient id="radial-gradient-2" cx="-689.58" cy="27.21" fx="-689.58" fy="27.21" r="3.39" xlink:href="#radial-gradient"/>
    <clipPath id="clippath-26">
      <path class="cls-35" d="M51.61,44.46v.18c0,.06-.04.12-.12.16-.16.09-.41.09-.57,0-.08-.05-.12-.11-.12-.17v-.18c0,.06.04.12.12.17.16.09.41.09.57,0,.08-.05.12-.1.12-.16Z"/>
    </clipPath>
    <clipPath id="clippath-27">
      <path class="cls-34" d="M65.51,43.61v.63c0,.18-.12.36-.35.49-.47.27-1.23.27-1.71,0-.24-.14-.36-.32-.36-.5v-.63c0,.18.12.36.36.5.47.27,1.24.27,1.71,0,.23-.14.35-.31.35-.49Z"/>
    </clipPath>
    <linearGradient id="linear-gradient-3" x1="-595.79" y1="42.64" x2="-592.78" y2="42.64" xlink:href="#linear-gradient"/>
    <linearGradient id="New_Gradient_Swatch-3" data-name="New Gradient Swatch" x1="-595.94" y1="40.73" x2="-592.64" y2="40.73" xlink:href="#New_Gradient_Swatch"/>
    <radialGradient id="radial-gradient-3" cx="-674.12" cy="18.17" fx="-674.12" fy="18.17" r="3.39" xlink:href="#radial-gradient"/>
    <clipPath id="clippath-28">
      <path class="cls-35" d="M64.71,36.8v.18c0,.06-.04.12-.12.16-.16.09-.41.09-.57,0-.08-.05-.12-.11-.12-.17v-.18c0,.06.04.12.12.17.16.09.41.09.57,0,.08-.04.12-.1.12-.16Z"/>
    </clipPath>
    <clipPath id="clippath-29">
      <path class="cls-34" d="M48.1,47.97v.81c0,.23-.16.46-.45.63-.6.35-1.58.35-2.19,0-.31-.18-.46-.41-.46-.64v-.81c0,.23.16.46.46.64.61.35,1.59.35,2.19,0,.3-.17.45-.4.45-.63Z"/>
    </clipPath>
    <clipPath id="clippath-30">
      <path class="cls-57" d="M47.51,46.96v.94c0,.14-.1.28-.28.39-.37.22-.98.22-1.36,0-.19-.11-.28-.25-.28-.4v-.94c0,.14.1.29.29.4.38.22.99.22,1.36,0,.19-.11.28-.25.28-.39Z"/>
    </clipPath>
    <clipPath id="clippath-31">
      <path class="cls-57" d="M47.51,45.93v.94c0,.14-.1.28-.28.39-.37.22-.98.22-1.36,0-.19-.11-.28-.25-.28-.4v-.94c0,.14.1.29.29.4.38.22.99.22,1.36,0,.19-.11.28-.25.28-.39Z"/>
    </clipPath>
    <clipPath id="clippath-32">
      <path class="cls-57" d="M47.51,44.69v.94c0,.14-.1.28-.28.39-.37.22-.98.22-1.36,0-.19-.11-.28-.25-.28-.4v-.94c0,.14.1.29.29.4.38.22.99.22,1.36,0,.19-.11.28-.25.28-.39Z"/>
    </clipPath>
    <clipPath id="clippath-33">
      <path class="cls-57" d="M47.05,43.53l.75,1.22c0,.18-.12.37-.36.51-.49.28-1.28.28-1.77,0-.25-.14-.37-.33-.37-.52l.75-1.22c0,.07.05.15.15.21.2.11.51.11.71,0,.1-.06.15-.13.15-.2Z"/>
    </clipPath>
    <clipPath id="clippath-34">
      <path class="cls-3" d="M47.05,43v.52c0,.07-.05.15-.14.2-.2.11-.51.11-.71,0-.1-.06-.15-.13-.15-.21v-.49c0,.07.05.15.15.21.2.11.51.11.71,0,.1-.06.14-.16.14-.23Z"/>
    </clipPath>
  </defs>
  <g id="Layer_1" data-name="Layer 1">
    <g>
      <g>
        <polygon class="cls-25" points="59.73 126 112.73 95.36 112.73 34.5 108.73 36.82 108.73 93.05 59.73 121.37 59.73 126"/>
        <polygon class="cls-23" points="0 91.5 59.73 126 59.73 121.37 4.01 89.18 4.01 32.95 0 30.64 0 91.5"/>
        <polygon class="cls-46" points="4.01 89.18 59.73 121.37 108.73 93.05 53 60.86 4.01 89.18"/>
        <polygon class="cls-72" points="4.01 89.18 53 60.86 53 4.63 4.01 32.95 4.01 89.18"/>
        <polygon class="cls-1" points="53 60.86 108.73 93.05 108.73 36.82 53 4.63 53 60.86"/>
        <polygon class="cls-64" points="4.01 32.95 53 4.63 108.73 36.82 112.73 34.5 53 0 0 30.64 4.01 32.95"/>
      </g>
      <g>
        <g>
          <g class="cls-45">
            <g class="cls-45">
              <path class="cls-65" d="M58.23,38.88l11.72,6.81c-.42-.25-1.01-.21-1.65.16l-11.72-6.81c.64-.37,1.23-.41,1.65-.16Z"/>
              <g class="cls-78">
                <g class="cls-45">
                  <path class="cls-65" d="M68.31,45.85l-11.72-6.81c.15-.08.29-.15.43-.2l11.72,6.81c-.14.05-.28.12-.43.2h0Z"/>
                  <path class="cls-65" d="M68.73,45.65l-11.72-6.81c.47-.17.9-.15,1.22.04l11.72,6.81c-.33-.19-.75-.21-1.22-.04h0Z"/>
                </g>
              </g>
            </g>
            <g class="cls-45">
              <path class="cls-65" d="M66.67,51.34l-11.72-6.81c-.42-.24-.67-.76-.68-1.49,0-1.47,1.03-3.26,2.31-4l11.72,6.81c-1.28.74-2.32,2.53-2.31,4,0,.73.26,1.25.68,1.49Z"/>
              <g class="cls-43">
                <g class="cls-45">
                  <path class="cls-65" d="M66.67,51.34l-11.72-6.81c-.34-.2-.58-.59-.65-1.13l11.72,6.81c.07.54.31.93.65,1.13h0Z"/>
                  <path class="cls-65" d="M66.02,50.21l-11.72-6.81c-.01-.11-.02-.23-.02-.36,0-.19.02-.39.05-.59l11.72,6.81c-.03.2-.05.4-.05.59,0,.13,0,.24.02.36h0Z"/>
                  <path class="cls-5" d="M66.05,49.26l-11.72-6.81c.06-.39.19-.78.36-1.16l11.72,6.81c-.17.38-.29.78-.36,1.17h0Z"/>
                  <path class="cls-60" d="M66.4,48.09l-11.72-6.81c.17-.39.4-.76.65-1.1l11.72,6.81c-.26.34-.48.71-.65,1.1h0Z"/>
                  <path class="cls-5" d="M67.06,46.99l-11.72-6.81c.26-.34.55-.64.86-.88l11.72,6.81c-.31.24-.6.54-.86.88h0Z"/>
                  <path class="cls-65" d="M67.92,46.11l-11.72-6.81c.13-.1.26-.18.39-.26l11.72,6.81c-.13.08-.26.16-.39.26h0Z"/>
                </g>
              </g>
            </g>
            <path class="cls-34" d="M68.31,45.85c1.28-.74,2.32-.15,2.33,1.33,0,1.47-1.03,3.26-2.31,4-1.28.74-2.32.15-2.33-1.33,0-1.47,1.03-3.26,2.31-4Z"/>
            <path class="cls-73" d="M68.31,46.5c.97-.56,1.76-.11,1.76,1,0,1.11-.78,2.47-1.75,3.03-.97.56-1.76.11-1.76-1,0-1.11.78-2.47,1.75-3.03Z"/>
          </g>
          <g class="cls-45">
            <polygon class="cls-33" points="68.39 46.29 68.35 46.26 68.27 46.15 68.31 46.17 68.39 46.29"/>
            <polygon class="cls-18" points="68.31 46.17 68.27 46.15 68.35 45.94 68.39 45.97 68.31 46.17"/>
            <polygon class="cls-76" points="68.39 45.97 68.35 45.94 68.51 45.85 68.55 45.88 68.39 45.97"/>
            <polygon class="cls-44" points="68.55 45.88 68.64 45.99 68.56 46.2 68.39 46.29 68.31 46.17 68.39 45.97 68.55 45.88"/>
          </g>
          <g class="cls-45">
            <polygon class="cls-33" points="66.58 51.04 66.54 51.01 66.46 50.9 66.5 50.92 66.58 51.04"/>
            <polygon class="cls-18" points="66.5 50.92 66.46 50.9 66.54 50.69 66.58 50.72 66.5 50.92"/>
            <polygon class="cls-76" points="66.58 50.72 66.54 50.69 66.7 50.6 66.74 50.63 66.58 50.72"/>
            <polygon class="cls-44" points="66.74 50.63 66.82 50.74 66.74 50.95 66.58 51.04 66.5 50.92 66.58 50.72 66.74 50.63"/>
          </g>
          <g class="cls-45">
            <polygon class="cls-33" points="70.08 46.61 70.04 46.59 69.96 46.47 70 46.5 70.08 46.61"/>
            <polygon class="cls-18" points="70 46.5 69.96 46.47 70.04 46.27 70.08 46.29 70 46.5"/>
            <polygon class="cls-76" points="70.08 46.29 70.04 46.27 70.2 46.17 70.24 46.2 70.08 46.29"/>
            <polygon class="cls-44" points="70.24 46.2 70.32 46.31 70.24 46.52 70.08 46.61 70 46.5 70.08 46.29 70.24 46.2"/>
          </g>
          <g class="cls-45">
            <polygon class="cls-33" points="68.39 50.99 68.35 50.96 68.27 50.85 68.31 50.88 68.39 50.99"/>
            <polygon class="cls-18" points="68.31 50.88 68.27 50.85 68.35 50.64 68.39 50.67 68.31 50.88"/>
            <polygon class="cls-76" points="68.39 50.67 68.35 50.64 68.51 50.55 68.55 50.58 68.39 50.67"/>
            <polygon class="cls-44" points="68.55 50.58 68.64 50.69 68.56 50.9 68.39 50.99 68.31 50.88 68.39 50.67 68.55 50.58"/>
          </g>
          <g class="cls-45">
            <polygon class="cls-33" points="66.48 48.63 66.43 48.61 66.35 48.49 66.4 48.52 66.48 48.63"/>
            <polygon class="cls-18" points="66.4 48.52 66.35 48.49 66.43 48.29 66.48 48.31 66.4 48.52"/>
            <polygon class="cls-76" points="66.48 48.31 66.43 48.29 66.59 48.19 66.64 48.22 66.48 48.31"/>
            <polygon class="cls-44" points="66.64 48.22 66.72 48.33 66.64 48.54 66.48 48.63 66.4 48.52 66.48 48.31 66.64 48.22"/>
          </g>
          <g class="cls-45">
            <polygon class="cls-33" points="70.02 48.89 69.98 48.87 69.9 48.75 69.94 48.78 70.02 48.89"/>
            <polygon class="cls-18" points="69.94 48.78 69.9 48.75 69.98 48.55 70.02 48.57 69.94 48.78"/>
            <polygon class="cls-76" points="70.02 48.57 69.98 48.55 70.14 48.46 70.18 48.48 70.02 48.57"/>
            <polygon class="cls-44" points="70.18 48.48 70.27 48.59 70.19 48.8 70.02 48.89 69.94 48.78 70.02 48.57 70.18 48.48"/>
          </g>
        </g>
        <g class="cls-45">
          <g class="cls-45">
            <path class="cls-27" d="M106.37,90.57v1.94c0-.56,0-1.87.01-2.42v-.94c0,.56,0,.87-.01,1.42Z"/>
            <g class="cls-70">
              <g class="cls-45">
                <path class="cls-27" d="M106.37,90.57v1.94c0-.56,0-1.87.01-2.42v-.94c0,.56,0,.87-.01,1.42h0Z"/>
              </g>
            </g>
          </g>
          <polygon class="cls-68" points="34.13 69.59 34.14 71.53 87.33 102.23 87.32 100.29 34.13 69.59"/>
          <path class="cls-55" d="M89.6,100.29h-2.28s0,1.94,0,1.94c.96,0,2.28,0,2.28,0v-1.94Z"/>
          <polygon class="cls-81" points="89.6 100.29 89.61 102.23 106.37 92.52 106.37 90.57 89.6 100.29"/>
          <path class="cls-67" d="M34.14,68.18c0,.56,0,.93,0,1.49l53.03,30.62c.95,0,1.49,0,2.44,0l16.77-9.71c0-.56,0-.87,0-1.42l-53.03-30.68c-.95,0-1.49,0-2.44,0l-16.77,9.71Z"/>
        </g>
        <g class="cls-45">
          <polygon class="cls-57" points="51.38 73.1 39.4 66.13 39.34 46.5 51.32 53.47 51.38 73.1"/>
          <polygon class="cls-67" points="51.32 53.47 39.34 46.5 55.01 37.46 66.99 44.42 51.32 53.47"/>
          <polygon class="cls-55" points="66.99 44.42 67.05 64.05 51.38 73.1 51.32 53.47 66.99 44.42"/>
        </g>
        <g>
          <g class="cls-45">
            <g>
              <path class="cls-34" d="M60.18,40.74v.81c0,.23-.16.46-.45.63-.6.35-1.58.35-2.19,0-.3-.18-.46-.41-.46-.64v-.81c0,.23.16.46.46.64.61.35,1.59.35,2.19,0,.3-.17.45-.4.45-.63Z"/>
              <g class="cls-50">
                <g class="cls-45">
                  <path class="cls-34" d="M60.18,40.74v.81c0,.23-.16.46-.45.63-.6.35-1.58.35-2.19,0-.3-.18-.46-.41-.46-.64v-.81c0,.23.16.46.46.64.61.35,1.59.35,2.19,0,.3-.17.45-.4.45-.63h0Z"/>
                </g>
              </g>
            </g>
            <path class="cls-5" d="M59.72,40.1c.61.35.61.92,0,1.27-.6.35-1.58.35-2.19,0-.61-.35-.61-.92,0-1.27.6-.35,1.58-.35,2.19,0Z"/>
          </g>
          <g class="cls-45">
            <g>
              <path class="cls-57" d="M59.59,39.73v.94c0,.14-.1.28-.28.39-.38.22-.98.22-1.36,0-.19-.11-.28-.25-.28-.4v-.94c0,.14.1.29.29.4.38.22.99.22,1.36,0,.19-.11.28-.25.28-.39Z"/>
              <g class="cls-16">
                <g class="cls-45">
                  <path class="cls-55" d="M59.59,39.73v.94c0,.14-.1.28-.28.39-.38.22-.98.22-1.36,0-.19-.11-.28-.25-.28-.4v-.94c0,.14.1.29.29.4.38.22.99.22,1.36,0,.19-.11.28-.25.28-.39h0Z"/>
                </g>
              </g>
            </g>
            <path class="cls-55" d="M59.31,39.33c.38.22.38.57,0,.79-.37.22-.98.22-1.36,0-.38-.22-.38-.57,0-.79.37-.22.98-.22,1.36,0Z"/>
          </g>
          <g>
            <path class="cls-57" d="M59.87,39.93c-.02-.1-.18-.38-.18-.38,0,.17-.05.54-.27.66-.44.25-1.15.25-1.59,0-.22-.13-.29-.48-.29-.65,0,0-.15.26-.18.36-.04.18.12.37.37.51.49.28,1.28.28,1.76,0,.24-.14.4-.33.36-.51Z"/>
            <g class="cls-45">
              <path class="cls-55" d="M59.42,39.29c.44.25.44.67,0,.92-.44.25-1.15.25-1.59,0-.44-.25-.44-.67,0-.92.44-.25,1.15-.25,1.59,0Z"/>
            </g>
          </g>
          <g class="cls-45">
            <g>
              <path class="cls-57" d="M59.59,38.7v.94c0,.14-.1.28-.28.39-.38.22-.98.22-1.36,0-.19-.11-.28-.25-.28-.4v-.94c0,.14.1.29.29.4.38.22.99.22,1.36,0,.19-.11.28-.25.28-.39Z"/>
              <g class="cls-47">
                <g class="cls-45">
                  <path class="cls-55" d="M59.59,38.7v.94c0,.14-.1.28-.28.39-.38.22-.98.22-1.36,0-.19-.11-.28-.25-.28-.4v-.94c0,.14.1.29.29.4.38.22.99.22,1.36,0,.19-.11.28-.25.28-.39h0Z"/>
                </g>
              </g>
            </g>
            <path class="cls-55" d="M59.31,38.3c.38.22.38.57,0,.79-.37.22-.98.22-1.36,0-.38-.22-.38-.57,0-.79.37-.22.98-.22,1.36,0Z"/>
          </g>
          <g>
            <path class="cls-57" d="M59.87,38.74c-.02-.1-.18-.38-.18-.38,0,.17-.05.54-.27.66-.44.25-1.15.25-1.59,0-.22-.13-.29-.48-.29-.65,0,0-.15.26-.18.36-.04.18.12.37.37.51.49.28,1.28.28,1.76,0,.24-.14.4-.33.36-.51Z"/>
            <g class="cls-45">
              <path class="cls-55" d="M59.42,38.11c.44.25.44.67,0,.92-.44.25-1.15.25-1.59,0-.44-.25-.44-.67,0-.92.44-.25,1.15-.25,1.59,0Z"/>
            </g>
          </g>
          <g class="cls-45">
            <g>
              <path class="cls-57" d="M59.59,37.46v.94c0,.14-.1.28-.28.39-.38.22-.98.22-1.36,0-.19-.11-.28-.25-.28-.4v-.94c0,.14.1.29.29.4.38.22.99.22,1.36,0,.19-.11.28-.25.28-.39Z"/>
              <g class="cls-6">
                <g class="cls-45">
                  <path class="cls-55" d="M59.59,37.46v.94c0,.14-.1.28-.28.39-.38.22-.98.22-1.36,0-.19-.11-.28-.25-.28-.4v-.94c0,.14.1.29.29.4.38.22.99.22,1.36,0,.19-.11.28-.25.28-.39h0Z"/>
                </g>
              </g>
            </g>
            <path class="cls-55" d="M59.31,37.06c.38.22.38.57,0,.79-.37.22-.98.22-1.36,0-.38-.22-.38-.57,0-.79.37-.22.98-.22,1.36,0Z"/>
          </g>
          <g class="cls-45">
            <g>
              <path class="cls-57" d="M59.13,36.3l.75,1.22c0,.18-.12.37-.36.51-.49.28-1.28.28-1.77,0-.25-.14-.37-.33-.37-.52l.75-1.22c0,.07.05.15.15.21.2.11.51.11.71,0,.1-.06.15-.13.15-.2Z"/>
              <g class="cls-7">
                <g class="cls-45">
                  <path class="cls-57" d="M59.13,36.3l.75,1.22c0,.18-.12.37-.36.51-.49.28-1.28.28-1.77,0-.25-.14-.37-.33-.37-.52l.75-1.22c0,.07.05.15.15.21.2.11.51.11.71,0,.1-.06.15-.13.15-.2h0Z"/>
                </g>
              </g>
            </g>
            <path class="cls-55" d="M58.98,36.09c.2.11.2.3,0,.41s-.51.11-.71,0c-.2-.11-.2-.3,0-.41.19-.11.51-.11.71,0Z"/>
          </g>
          <g class="cls-45">
            <g>
              <path class="cls-3" d="M59.13,35.77v.52c0,.07-.05.15-.14.2-.2.11-.51.11-.71,0-.1-.06-.15-.13-.15-.21v-.49c0,.07.05.15.15.21.2.11.51.11.71,0,.1-.06.14-.16.14-.23Z"/>
              <g class="cls-49">
                <g class="cls-45">
                  <path class="cls-3" d="M59.13,35.77v.52c0,.07-.05.15-.14.2-.2.11-.51.11-.71,0-.1-.06-.15-.13-.15-.21v-.49c0,.07.05.15.15.21.2.11.51.11.71,0,.1-.06.14-.16.14-.23h0Z"/>
                </g>
              </g>
            </g>
          </g>
          <path class="cls-3" d="M59.13,35.8c0-.28-.22-.5-.5-.5s-.5.22-.5.5.22.5.5.5.5-.22.5-.5Z"/>
        </g>
        <path class="cls-81" d="M59.23,49.85c4.02-2.32,7.29-.46,7.3,4.16.01,4.62-3.23,10.24-7.25,12.56-4.02,2.32-7.28.46-7.3-4.16-.01-4.62,3.23-10.24,7.25-12.56Z"/>
        <g class="cls-45">
          <g class="cls-45">
            <g class="cls-26">
              <g class="cls-45">
                <path class="cls-13" d="M78.22,61.6l-18.97-11.02c.29-.17.58-.31.86-.43l18.97,11.02c-.28.12-.57.26-.86.43h0Z"/>
                <path class="cls-13" d="M79.08,61.17l-18.97-11.02c1.51-.65,2.85-.62,3.87-.03l18.97,11.02c-1.02-.59-2.37-.62-3.87.03h0Z"/>
              </g>
            </g>
          </g>
          <g class="cls-45">
            <g class="cls-28">
              <g class="cls-45">
                <path class="cls-13" d="M73.53,77.36l-18.97-11.02c-1.01-.59-1.7-1.74-1.89-3.35l18.97,11.02c.19,1.61.88,2.76,1.89,3.35h0Z"/>
                <path class="cls-13" d="M71.64,74l-18.97-11.02c-.03-.29-.05-.6-.05-.92,0-.7.08-1.43.23-2.16l18.97,11.02c-.15.73-.23,1.46-.23,2.16,0,.32.02.63.05.92h0Z"/>
                <path class="cls-62" d="M71.82,70.92l-18.97-11.02c.61-2.97,2.4-6.05,4.68-8.07l18.97,11.02c-2.27,2.01-4.06,5.1-4.68,8.07h0Z"/>
                <path class="cls-13" d="M76.49,62.86l-18.97-11.02c.55-.49,1.13-.91,1.73-1.26l18.97,11.02c-.6.34-1.18.77-1.73,1.26h0Z"/>
              </g>
            </g>
          </g>
          <path class="cls-53" d="M78.22,61.6c3.67-2.12,6.66-.42,6.68,3.8s-2.96,9.37-6.63,11.49c-3.67,2.12-6.66.42-6.67-3.8-.01-4.22,2.96-9.37,6.63-11.49Z"/>
        </g>
        <g class="cls-45">
          <polygon class="cls-55" points="61.63 67.88 64.67 66.12 64.62 80.27 61.58 82.04 61.63 67.88"/>
          <polygon class="cls-67" points="53.33 63.09 56.37 61.32 64.67 66.12 61.63 67.88 53.33 63.09"/>
          <polygon class="cls-57" points="61.63 67.88 61.58 82.04 53.27 77.24 53.33 63.09 61.63 67.88"/>
        </g>
        <g>
          <g class="cls-45">
            <polygon class="cls-55" points="105.41 84.2 105.39 88.7 88.46 98.54 88.48 94.04 105.41 84.2"/>
            <polygon class="cls-68" points="88.48 94.04 88.46 98.54 61.73 83.1 61.75 78.61 88.48 94.04"/>
            <polygon class="cls-21" points="105.41 84.2 88.48 94.04 61.75 78.61 78.68 68.77 105.41 84.2"/>
          </g>
          <g class="cls-45">
            <polygon class="cls-10" points="105.4 83.65 105.4 84.2 88.46 94.04 88.47 93.49 105.4 83.65"/>
            <polygon class="cls-15" points="88.47 93.49 88.46 94.04 61.74 78.6 61.74 78.05 88.47 93.49"/>
            <polygon class="cls-5" points="105.4 83.65 88.47 93.49 61.74 78.05 78.67 68.21 105.4 83.65"/>
          </g>
        </g>
        <g class="cls-45">
          <g class="cls-45">
            <g class="cls-31">
              <g class="cls-45">
                <path class="cls-62" d="M75.49,58.34l-1.9-1.1c.33-.19.66-.36.99-.5l1.9,1.1c-.32.14-.65.3-.99.5h0Z"/>
                <path class="cls-13" d="M76.47,57.84l-1.9-1.1c1.73-.74,3.28-.71,4.44-.03l1.9,1.1c-1.17-.68-2.72-.71-4.44.03h0Z"/>
              </g>
            </g>
          </g>
          <g class="cls-45">
            <g class="cls-54">
              <g class="cls-45">
                <path class="cls-13" d="M70.11,76.41l-1.9-1.1c-1.16-.67-1.95-1.99-2.17-3.84l1.9,1.1c.22,1.85,1,3.17,2.17,3.84h0Z"/>
                <path class="cls-62" d="M67.94,72.57l-1.9-1.1c-.04-.33-.06-.68-.06-1.05,0-.8.09-1.64.26-2.48l1.9,1.1c-.17.84-.27,1.68-.26,2.48,0,.37.02.72.06,1.05h0Z"/>
                <path class="cls-80" d="M68.14,69.04l-1.9-1.1c.71-3.4,2.76-6.94,5.36-9.25l1.9,1.1c-2.61,2.31-4.66,5.85-5.36,9.25h0Z"/>
                <path class="cls-62" d="M73.51,59.78l-1.9-1.1c.63-.56,1.29-1.05,1.98-1.44l1.9,1.1c-.68.4-1.35.88-1.98,1.44h0Z"/>
              </g>
            </g>
          </g>
          <path class="cls-53" d="M75.49,58.34c4.22-2.43,7.64-.48,7.66,4.36.01,4.84-3.39,10.74-7.61,13.18-4.22,2.43-7.64.48-7.66-4.36s3.39-10.74,7.61-13.18Z"/>
        </g>
        <g class="cls-45">
          <g class="cls-45">
            <g class="cls-74">
              <g class="cls-45">
                <path class="cls-13" d="M94.87,70.45l-18.97-11.02c.3-.18.6-.33.9-.45l18.97,11.02c-.29.13-.59.28-.9.45h0Z"/>
                <path class="cls-13" d="M95.77,70l-18.97-11.02c1.57-.67,2.98-.65,4.04-.03l18.97,11.02c-1.06-.62-2.47-.64-4.04.03h0Z"/>
              </g>
            </g>
          </g>
          <g class="cls-45">
            <g class="cls-56">
              <g class="cls-45">
                <path class="cls-13" d="M89.98,86.89l-18.97-11.02c-1.06-.61-1.77-1.81-1.97-3.5l18.97,11.02c.2,1.68.91,2.88,1.97,3.5h0Z"/>
                <path class="cls-13" d="M88.01,83.4l-18.97-11.02c-.04-.3-.05-.62-.06-.96,0-.73.08-1.49.24-2.26l18.97,11.02c-.16.77-.24,1.53-.24,2.26,0,.33.02.65.06.96h0Z"/>
                <path class="cls-62" d="M88.19,80.18l-18.97-11.02c.64-3.1,2.51-6.32,4.88-8.42l18.97,11.02c-2.37,2.1-4.24,5.32-4.88,8.42h0Z"/>
                <path class="cls-13" d="M93.07,71.76l-18.97-11.02c.57-.51,1.18-.95,1.8-1.31l18.97,11.02c-.62.36-1.23.8-1.8,1.31h0Z"/>
              </g>
            </g>
          </g>
          <path class="cls-53" d="M94.87,70.45c3.84-2.21,6.95-.44,6.97,3.97.01,4.41-3.09,9.77-6.92,11.99-3.84,2.21-6.95.44-6.97-3.97-.01-4.41,3.09-9.78,6.92-11.99Z"/>
        </g>
        <g class="cls-45">
          <polygon class="cls-57" points="88.61 75.16 81.97 71.3 81.91 49.69 88.55 53.55 88.61 75.16"/>
          <polygon class="cls-67" points="88.55 53.55 81.91 49.69 91.9 43.92 98.54 47.78 88.55 53.55"/>
          <polygon class="cls-55" points="98.54 47.78 98.6 69.39 88.61 75.16 88.55 53.55 98.54 47.78"/>
        </g>
        <g class="cls-45">
          <g class="cls-45">
            <g class="cls-11">
              <g class="cls-45">
                <path class="cls-62" d="M97.1,70.86l-1.9-1.1c.33-.19.66-.36.99-.5l1.9,1.1c-.32.14-.65.3-.99.5h0Z"/>
                <path class="cls-13" d="M98.08,70.36l-1.9-1.1c1.73-.74,3.28-.71,4.44-.03l1.9,1.1c-1.17-.68-2.72-.71-4.44.03h0Z"/>
              </g>
            </g>
          </g>
          <g class="cls-45">
            <g class="cls-69">
              <g class="cls-45">
                <path class="cls-13" d="M91.71,88.93l-1.9-1.1c-1.16-.67-1.95-1.99-2.17-3.84l1.9,1.1c.22,1.85,1,3.17,2.17,3.84h0Z"/>
                <path class="cls-62" d="M89.55,85.09l-1.9-1.1c-.04-.33-.06-.68-.06-1.05,0-.8.09-1.64.26-2.48l1.9,1.1c-.17.84-.27,1.68-.26,2.48,0,.37.02.72.06,1.05h0Z"/>
                <path class="cls-80" d="M89.75,81.55l-1.9-1.1c.71-3.4,2.76-6.94,5.36-9.25l1.9,1.1c-2.61,2.31-4.66,5.85-5.36,9.25h0Z"/>
                <path class="cls-62" d="M95.12,72.3l-1.9-1.1c.63-.56,1.29-1.05,1.98-1.44l1.9,1.1c-.68.4-1.35.88-1.98,1.44h0Z"/>
              </g>
            </g>
          </g>
          <path class="cls-53" d="M97.1,70.86c4.22-2.43,7.64-.48,7.66,4.36.01,4.84-3.39,10.74-7.61,13.18-4.21,2.43-7.64.48-7.66-4.36-.01-4.84,3.39-10.74,7.61-13.18Z"/>
        </g>
        <g class="cls-45">
          <g class="cls-45">
            <g class="cls-8">
              <g class="cls-45">
                <path class="cls-13" d="M103.86,75.63l-6.64-3.86c.3-.18.6-.33.9-.45l6.64,3.86c-.29.13-.59.28-.9.45h0Z"/>
                <path class="cls-13" d="M104.76,75.17l-6.64-3.86c1.57-.67,2.98-.65,4.04-.03l6.64,3.86c-1.06-.62-2.47-.64-4.04.03h0Z"/>
              </g>
            </g>
          </g>
          <g class="cls-45">
            <g class="cls-14">
              <g class="cls-45">
                <path class="cls-13" d="M98.96,92.07l-6.64-3.86c-1.06-.61-1.77-1.81-1.97-3.5l6.64,3.86c.2,1.68.91,2.88,1.97,3.5h0Z"/>
                <path class="cls-13" d="M96.99,88.57l-6.64-3.86c-.04-.3-.05-.62-.06-.96,0-.73.08-1.49.24-2.26l6.64,3.86c-.16.77-.24,1.52-.24,2.26,0,.33.02.65.06.96h0Z"/>
                <path class="cls-62" d="M97.18,85.36l-6.64-3.86c.64-3.1,2.51-6.32,4.88-8.42l6.64,3.86c-2.37,2.1-4.24,5.32-4.88,8.42h0Z"/>
                <path class="cls-13" d="M102.06,76.94l-6.64-3.86c.57-.51,1.18-.95,1.8-1.31l6.64,3.86c-.62.36-1.23.8-1.8,1.31h0Z"/>
              </g>
            </g>
          </g>
          <path class="cls-53" d="M103.86,75.63c3.84-2.21,6.95-.44,6.97,3.97.01,4.41-3.09,9.78-6.92,11.99-3.84,2.21-6.95.44-6.97-3.97-.01-4.41,3.09-9.78,6.92-11.99Z"/>
        </g>
        <g class="cls-45">
          <polygon class="cls-22" points="67.05 80.25 66.29 79.81 70.46 69.74 71.22 70.18 67.05 80.25"/>
          <polygon class="cls-53" points="71.22 70.18 71.24 77.83 67.05 80.25 71.22 70.18"/>
        </g>
        <g class="cls-45">
          <polygon class="cls-22" points="82.94 89.65 82.18 89.21 86.35 79.13 87.11 79.57 82.94 89.65"/>
          <polygon class="cls-53" points="87.11 79.57 87.13 87.23 82.94 89.65 87.11 79.57"/>
        </g>
        <g class="cls-45">
          <polygon class="cls-22" points="74.81 84.95 74.06 84.51 78.23 74.43 78.99 74.88 74.81 84.95"/>
          <polygon class="cls-53" points="78.99 74.88 79.01 82.53 74.81 84.95 78.99 74.88"/>
        </g>
        <g>
          <g class="cls-45">
            <g class="cls-45">
              <path class="cls-65" d="M39.67,49.65l11.72,6.81c-.42-.25-1.01-.21-1.65.16l-11.72-6.81c.64-.37,1.23-.41,1.65-.16Z"/>
              <g class="cls-59">
                <g class="cls-45">
                  <path class="cls-65" d="M49.74,56.62l-11.72-6.81c.15-.08.29-.15.43-.2l11.72,6.81c-.14.05-.28.12-.43.2h0Z"/>
                  <path class="cls-65" d="M50.16,56.42l-11.72-6.81c.47-.17.9-.15,1.22.04l11.72,6.81c-.33-.19-.75-.21-1.22-.04h0Z"/>
                </g>
              </g>
            </g>
            <g class="cls-45">
              <path class="cls-65" d="M48.1,62.11l-11.72-6.81c-.42-.24-.67-.76-.68-1.49,0-1.47,1.03-3.26,2.31-4l11.72,6.81c-1.28.74-2.32,2.53-2.31,4,0,.73.26,1.25.68,1.49Z"/>
              <g class="cls-48">
                <g class="cls-45">
                  <path class="cls-65" d="M48.1,62.11l-11.72-6.81c-.34-.2-.58-.59-.65-1.13l11.72,6.81c.07.54.31.93.65,1.13h0Z"/>
                  <path class="cls-65" d="M47.45,60.98l-11.72-6.81c-.01-.11-.02-.23-.02-.36,0-.19.02-.39.05-.59l11.72,6.81c-.03.2-.05.4-.05.59,0,.13,0,.24.02.36h0Z"/>
                  <path class="cls-5" d="M47.48,60.03l-11.72-6.81c.06-.39.19-.78.36-1.16l11.72,6.81c-.17.38-.29.78-.36,1.16h0Z"/>
                  <path class="cls-60" d="M47.84,58.86l-11.72-6.81c.17-.39.4-.76.65-1.1l11.72,6.81c-.26.34-.48.71-.65,1.1h0Z"/>
                  <path class="cls-5" d="M48.49,57.76l-11.72-6.81c.26-.34.55-.64.86-.88l11.72,6.81c-.31.24-.61.54-.86.88h0Z"/>
                  <path class="cls-65" d="M49.35,56.88l-11.72-6.81c.13-.1.26-.18.39-.26l11.72,6.81c-.13.08-.26.16-.39.26h0Z"/>
                </g>
              </g>
            </g>
            <path class="cls-34" d="M49.74,56.62c1.28-.74,2.32-.15,2.33,1.33,0,1.47-1.03,3.26-2.31,4-1.28.74-2.32.15-2.33-1.33,0-1.47,1.03-3.26,2.31-4Z"/>
            <path class="cls-73" d="M49.74,57.27c.97-.56,1.76-.11,1.76,1,0,1.11-.78,2.47-1.75,3.03s-1.76.11-1.76-1c0-1.11.78-2.47,1.75-3.03Z"/>
          </g>
          <g class="cls-45">
            <polygon class="cls-33" points="49.83 57.06 49.78 57.03 49.7 56.92 49.75 56.95 49.83 57.06"/>
            <polygon class="cls-18" points="49.75 56.95 49.7 56.92 49.78 56.71 49.83 56.74 49.75 56.95"/>
            <polygon class="cls-76" points="49.83 56.74 49.78 56.71 49.94 56.62 49.99 56.65 49.83 56.74"/>
            <polygon class="cls-44" points="49.99 56.65 50.07 56.76 49.99 56.97 49.83 57.06 49.75 56.95 49.83 56.74 49.99 56.65"/>
          </g>
          <g class="cls-45">
            <polygon class="cls-33" points="48.02 61.81 47.97 61.78 47.89 61.67 47.93 61.7 48.02 61.81"/>
            <polygon class="cls-18" points="47.93 61.7 47.89 61.67 47.97 61.46 48.01 61.49 47.93 61.7"/>
            <polygon class="cls-76" points="48.01 61.49 47.97 61.46 48.13 61.37 48.18 61.4 48.01 61.49"/>
            <polygon class="cls-44" points="48.18 61.4 48.26 61.51 48.18 61.72 48.02 61.81 47.93 61.7 48.01 61.49 48.18 61.4"/>
          </g>
          <g class="cls-45">
            <polygon class="cls-33" points="51.51 57.38 51.47 57.36 51.39 57.24 51.43 57.27 51.51 57.38"/>
            <polygon class="cls-18" points="51.43 57.27 51.39 57.24 51.47 57.04 51.51 57.06 51.43 57.27"/>
            <polygon class="cls-76" points="51.51 57.06 51.47 57.04 51.63 56.95 51.67 56.97 51.51 57.06"/>
            <polygon class="cls-44" points="51.67 56.97 51.76 57.08 51.68 57.29 51.51 57.38 51.43 57.27 51.51 57.06 51.67 56.97"/>
          </g>
          <g class="cls-45">
            <polygon class="cls-33" points="49.83 61.76 49.78 61.73 49.7 61.62 49.75 61.65 49.83 61.76"/>
            <polygon class="cls-18" points="49.75 61.65 49.7 61.62 49.78 61.41 49.83 61.44 49.75 61.65"/>
            <polygon class="cls-76" points="49.83 61.44 49.78 61.41 49.94 61.32 49.99 61.35 49.83 61.44"/>
            <polygon class="cls-44" points="49.99 61.35 50.07 61.46 49.99 61.67 49.83 61.76 49.75 61.65 49.83 61.44 49.99 61.35"/>
          </g>
          <g class="cls-45">
            <polygon class="cls-33" points="47.91 59.4 47.87 59.38 47.79 59.26 47.83 59.29 47.91 59.4"/>
            <polygon class="cls-18" points="47.83 59.29 47.79 59.26 47.87 59.06 47.91 59.08 47.83 59.29"/>
            <polygon class="cls-76" points="47.91 59.08 47.87 59.06 48.03 58.96 48.07 58.99 47.91 59.08"/>
            <polygon class="cls-44" points="48.07 58.99 48.15 59.1 48.07 59.31 47.91 59.4 47.83 59.29 47.91 59.08 48.07 58.99"/>
          </g>
          <g class="cls-45">
            <polygon class="cls-33" points="51.46 59.66 51.41 59.64 51.33 59.53 51.38 59.55 51.46 59.66"/>
            <polygon class="cls-18" points="51.38 59.55 51.33 59.53 51.41 59.32 51.46 59.34 51.38 59.55"/>
            <polygon class="cls-76" points="51.46 59.34 51.41 59.32 51.57 59.23 51.62 59.25 51.46 59.34"/>
            <polygon class="cls-44" points="51.62 59.25 51.7 59.37 51.62 59.57 51.46 59.66 51.38 59.55 51.46 59.34 51.62 59.25"/>
          </g>
        </g>
        <g class="cls-45">
          <g class="cls-45">
            <g class="cls-4">
              <g class="cls-45">
                <path class="cls-34" d="M52.85,29.45l-.04,13.67c0,.43-.28.86-.85,1.19-.13.07-.26.14-.41.2l.04-13.67c.14-.06.28-.12.41-.2.57-.33.85-.76.85-1.19h0Z"/>
                <path class="cls-15" d="M51.6,30.84l-.04,13.67c-.33.13-.69.22-1.06.26l.04-13.67c.37-.05.73-.13,1.06-.26h0Z"/>
                <path class="cls-65" d="M50.54,31.1l-.04,13.67c-.93.11-1.95-.04-2.67-.46-.01,0-.02-.01-.03-.02l.04-13.67s.02.01.03.02c.73.42,1.74.57,2.67.46h0Z"/>
                <path class="cls-15" d="M47.83,30.62l-.04,13.67c-.28-.17-.49-.36-.63-.57l.04-13.67c.14.21.35.4.63.57h0Z"/>
                <path class="cls-34" d="M47.2,30.06l-.04,13.67c-.13-.2-.2-.41-.2-.62l.04-13.67c0,.21.07.42.2.62h0Z"/>
              </g>
            </g>
          </g>
          <path class="cls-5" d="M51.99,28.25c1.15.66,1.15,1.73.01,2.4-1.14.66-2.99.66-4.14,0-1.15-.66-1.15-1.74-.01-2.4,1.14-.66,2.99-.66,4.14,0Z"/>
        </g>
        <g class="cls-45">
          <g class="cls-45">
            <g class="cls-19">
              <g class="cls-45">
                <path class="cls-34" d="M58.97,33.5l-.04,13.67c0,.43-.28.86-.85,1.19-.13.07-.26.14-.41.2l.04-13.67c.14-.06.28-.12.41-.2.57-.33.85-.76.85-1.19h0Z"/>
                <path class="cls-15" d="M57.72,34.88l-.04,13.67c-.33.13-.69.22-1.06.26l.04-13.67c.37-.05.73-.13,1.06-.26h0Z"/>
                <path class="cls-65" d="M56.66,35.15l-.04,13.67c-.93.11-1.95-.04-2.67-.46-.01,0-.02-.01-.03-.02l.04-13.67s.02.01.03.02c.73.42,1.74.57,2.67.46h0Z"/>
                <path class="cls-15" d="M53.95,34.67l-.04,13.67c-.28-.17-.49-.36-.63-.57l.04-13.67c.14.21.35.4.63.57h0Z"/>
                <path class="cls-34" d="M53.32,34.1l-.04,13.67c-.13-.2-.2-.41-.2-.62l.04-13.67c0,.21.07.42.2.62h0Z"/>
              </g>
            </g>
          </g>
          <path class="cls-5" d="M58.11,32.29c1.15.66,1.15,1.73.01,2.4-1.14.66-2.99.66-4.14,0-1.15-.66-1.15-1.74-.01-2.4,1.14-.66,2.99-.66,4.14,0Z"/>
        </g>
        <g>
          <g>
            <polygon class="cls-80" points="85.17 63.7 86.62 67.17 83.73 65.5 85.17 63.7"/>
            <path class="cls-27" d="M85.17,64.04l1.16,2.78-2.31-1.33,1.16-1.45h0ZM85.17,63.87l-1.3,1.63,2.6,1.5-1.3-3.13h0Z"/>
          </g>
          <polygon class="cls-27" points="85.19 64.42 85.03 65.04 85.5 65.31 85.07 65.92 85.18 65.31 84.74 65.05 85.19 64.42"/>
        </g>
        <g>
          <g class="cls-45">
            <g>
              <path class="cls-34" d="M43.32,46.04v.63c0,.18-.12.36-.35.49-.47.27-1.23.27-1.71,0-.24-.14-.36-.32-.36-.5v-.63c0,.18.12.36.36.5.47.27,1.24.27,1.71,0,.23-.14.35-.31.35-.49Z"/>
              <g class="cls-20">
                <g class="cls-45">
                  <path class="cls-34" d="M43.32,46.04v.63c0,.18-.12.36-.35.49-.47.27-1.23.27-1.71,0-.24-.14-.36-.32-.36-.5v-.63c0,.18.12.36.36.5.47.27,1.24.27,1.71,0,.23-.14.35-.31.35-.49h0Z"/>
                </g>
              </g>
            </g>
            <path class="cls-5" d="M42.97,45.54c.47.27.48.72,0,.99-.47.27-1.23.27-1.71,0-.47-.27-.48-.72,0-.99.47-.27,1.23-.27,1.71,0Z"/>
          </g>
          <g>
            <path class="cls-75" d="M43.59,44.63h0c.09-.28-.05-.57-.42-.79-.59-.34-1.54-.34-2.13,0-.39.22-.52.54-.39.83.1.28.49,1.35.5,1.37.02.12.12.24.28.34.03.02.06.03.09.05.1.05.22.08.34.1.31.05.66,0,.91-.13,0,0,.01,0,.02-.01.09-.05.15-.11.2-.17l.59-1.54s.01-.03.01-.04h0ZM41.09,45.1s0,0,0,0c0,0,0,0,0,0ZM41.12,45.12s0,0,.01,0c0,0,0,0-.01,0ZM41.2,45.16s0,0,0,0c0,0,0,0,0,0,0,0,0,0,0,0ZM41.16,45.14s0,0,0,0c0,0,0,0,0,0ZM41.53,45.27s0,0,0,0c0,0,0,0,0,0ZM41.26,45.18s0,0,0,0c0,0,0,0,0,0ZM41.33,45.21s0,0,0,0c0,0,0,0,0,0ZM41.39,45.23s0,0,0,0c0,0,0,0,0,0ZM41.46,45.25s0,0,0,0c0,0,0,0,0,0ZM41.73,45.31s0,0,.01,0c0,0,0,0,0,0,0,0,0,0,0,0ZM41.59,45.28s0,0,0,0c0,0,0,0,0,0ZM41.66,45.3s0,0,0,0c0,0,0,0,0,0ZM41.77,45.31s0,0,.01,0c0,0,0,0-.01,0ZM41.82,45.32s0,0,.01,0c0,0,0,0-.01,0ZM42.1,45.34s0,0,.01,0c0,0,0,0-.01,0ZM41.87,45.32s0,0,0,0c0,0,0,0,0,0ZM41.91,45.33s0,0,.01,0c0,0,0,0-.01,0ZM41.96,45.33s0,0,.01,0c0,0,0,0-.01,0ZM42.01,45.33s0,0,0,0c0,0,0,0,0,0ZM42.06,45.34s0,0,.01,0c0,0,0,0-.01,0ZM42.15,45.34s0,0,0,0c0,0,0,0,0,0ZM42.2,45.34s0,0,.01,0c0,0,0,0-.01,0ZM42.24,45.33s0,0,.01,0c0,0,0,0-.01,0ZM42.29,45.33s0,0,.01,0c0,0,0,0-.01,0ZM42.34,45.33s0,0,0,0c0,0,0,0,0,0ZM42.38,45.32s0,0,.01,0c0,0,0,0-.01,0ZM42.43,45.32s0,0,.01,0c0,0,0,0-.01,0ZM42.48,45.31s0,0,0,0c0,0,0,0,0,0ZM42.52,45.31s0,0,.01,0c0,0,0,0-.01,0ZM42.56,45.3s0,0,.01,0c0,0,0,0-.01,0ZM42.61,45.29s0,0,0,0c0,0,0,0,0,0ZM42.66,45.28s0,0,.01,0c0,0,0,0-.01,0ZM42.7,45.27s0,0,.01,0c0,0,0,0-.01,0ZM42.74,45.26s0,0,.01,0c0,0,0,0-.01,0ZM43.14,45.1s0,0,0,0c0,0,0,0,0,0,0,0,0,0,0,0ZM42.79,45.25s0,0,0,0c0,0,0,0,0,0ZM42.83,45.23s0,0,.01,0c0,0,0,0-.01,0ZM42.87,45.22s0,0,.01,0c0,0,0,0-.01,0ZM42.92,45.2s0,0,0,0c0,0,0,0,0,0ZM42.95,45.19s0,0,.01,0c0,0,0,0-.01,0ZM42.99,45.18s0,0,.01,0c0,0,0,0-.01,0ZM43.03,45.16s0,0,0,0c0,0,0,0,0,0ZM43.07,45.14s0,0,0,0c0,0,0,0,0,0ZM43.11,45.12s0,0,.01,0c0,0,0,0-.01,0ZM43.21,45.07s-.02.01-.03.02c0,0,.02-.01.03-.02ZM43.41,44.91s0,0-.01.01c0,0,0,0,.01-.01ZM43.39,44.93s0,0-.01.01c0,0,0,0,.01-.01ZM43.37,44.95s0,0-.01,0c0,0,0,0,.01,0ZM43.35,44.97s0,0-.01,0c0,0,0,0,.01,0ZM43.33,44.98s0,0-.01,0c0,0,0,0,.01,0ZM43.31,45s0,0-.01,0c0,0,0,0,.01,0ZM43.28,45.02s0,0-.01,0c0,0,0,0,.01,0ZM43.26,45.03s0,0-.01,0c0,0,0,0,.01,0ZM43.24,45.05s-.01,0-.02.01c0,0,.01,0,.02-.01ZM43.42,44.91s.01-.01.02-.02c0,0-.01.01-.02.02ZM43.49,44.82s0,0,0,0c0,0,0,0,0,0h0ZM43.43,44.89s.01-.01.02-.02c0,0-.01.01-.02.02ZM43.46,44.87s0,0,.01-.01c0,0,0,0-.01.01ZM43.47,44.85s0,0,0-.01c0,0,0,0,0,.01Z"/>
            <g class="cls-45">
              <path class="cls-38" d="M42.2,45.01s.05.07,0,.1c-.05.03-.12.03-.17,0-.05-.03-.05-.07,0-.1.05-.03.12-.03.17,0Z"/>
            </g>
            <g class="cls-45">
              <path class="cls-38" d="M40.77,44.17s.05.07,0,.1c-.05.03-.12.03-.17,0-.05-.03-.05-.07,0-.1.05-.03.12-.03.17,0Z"/>
            </g>
            <g class="cls-45">
              <path class="cls-38" d="M43.68,44.17s.05.07,0,.1c-.05.03-.12.03-.17,0-.05-.03-.05-.07,0-.1.05-.03.12-.03.17,0Z"/>
            </g>
            <g>
              <g class="cls-45">
                <path class="cls-42" d="M43.28,40.09c.65.37.65.98,0,1.35-.64.37-1.68.37-2.33,0-.65-.37-.65-.98,0-1.35.64-.37,1.68-.37,2.33,0Z"/>
              </g>
              <path class="cls-61" d="M43.76,40.76v3.84c0,.24-.17.48-.49.67-.64.37-1.68.37-2.33,0-.32-.19-.49-.43-.49-.68v-3.84c0,.25.17.49.49.68.65.37,1.69.37,2.33,0,.32-.19.48-.43.48-.67Z"/>
            </g>
            <path class="cls-36" d="M43.76,40.69c-.04-.88-.76-1.58-1.64-1.58s-1.6.69-1.64,1.56h0c0,.05,0,.1,0,.16.03.22.19.43.48.6.65.37,1.69.37,2.33,0,.29-.17.44-.38.47-.6,0-.05,0-.1,0-.14Z"/>
            <g class="cls-45">
              <g class="cls-45">
                <path class="cls-35" d="M42.52,39.23v.18c0,.06-.04.12-.12.16-.16.09-.41.09-.57,0-.08-.05-.12-.11-.12-.17v-.18c0,.06.04.12.12.17.16.09.41.09.57,0,.08-.04.12-.1.12-.16Z"/>
                <g class="cls-77">
                  <g class="cls-45">
                    <path class="cls-35" d="M42.52,39.23v.18s-.01.06-.03.09v-.18s.03-.06.03-.09h0Z"/>
                    <path class="cls-35" d="M42.49,39.32v.18s-.05.05-.08.07c0,0-.02,0-.03.01v-.18s.02,0,.03-.01c.04-.02.06-.05.08-.07h0Z"/>
                    <path class="cls-35" d="M42.38,39.4v.18c-.08.04-.19.06-.29.05v-.18c.1,0,.21-.01.29-.05h0Z"/>
                    <path class="cls-35" d="M42.08,39.46v.18c-.06,0-.12-.01-.18-.03v-.18c.05.02.11.03.18.03h0Z"/>
                    <path class="cls-35" d="M41.91,39.42v.18s-.05-.02-.07-.03c-.08-.05-.12-.11-.12-.17v-.18c0,.06.04.12.12.17.02.01.05.02.07.03h0Z"/>
                  </g>
                </g>
              </g>
              <path class="cls-42" d="M42.4,39.06c.16.09.16.24,0,.33-.16.09-.41.09-.57,0-.16-.09-.16-.24,0-.33.16-.09.41-.09.57,0Z"/>
              <path class="cls-79" d="M42.33,39.33s0,0-.01,0c0,0-.02,0-.02.01-.1.04-.23.05-.33,0-.02,0-.03-.01-.05-.02,0,0-.02,0-.02-.01-.08-.06-.08-.14,0-.2,0,0,.01,0,.02-.01.01,0,.03-.02.05-.02.1-.04.23-.03.33.01,0,0,.02,0,.02.01,0,0,.01,0,.02,0,.09.06.09.15,0,.21Z"/>
            </g>
          </g>
        </g>
        <g>
          <g class="cls-45">
            <g>
              <path class="cls-34" d="M52.41,51.27v.63c0,.18-.12.36-.35.49-.47.27-1.23.27-1.71,0-.24-.14-.36-.32-.36-.5v-.63c0,.18.12.36.36.5.47.27,1.24.27,1.71,0,.23-.14.35-.31.35-.49Z"/>
              <g class="cls-29">
                <g class="cls-45">
                  <path class="cls-34" d="M52.41,51.27v.63c0,.18-.12.36-.35.49-.47.27-1.23.27-1.71,0-.24-.14-.36-.32-.36-.5v-.63c0,.18.12.36.36.5.47.27,1.24.27,1.71,0,.23-.14.35-.31.35-.49h0Z"/>
                </g>
              </g>
            </g>
            <path class="cls-5" d="M52.05,50.77c.47.27.48.72,0,.99-.47.27-1.23.27-1.71,0-.47-.27-.48-.72,0-.99.47-.27,1.23-.27,1.71,0Z"/>
          </g>
          <g>
            <path class="cls-17" d="M52.68,49.87h0c.09-.28-.05-.57-.42-.79-.59-.34-1.54-.34-2.13,0-.39.22-.52.54-.39.83.1.28.49,1.35.5,1.37.02.12.12.24.28.34.03.02.06.03.09.05.1.05.22.08.34.1.31.05.66,0,.91-.13,0,0,.01,0,.02-.01.09-.05.15-.11.2-.17l.59-1.54s.01-.03.01-.04h0ZM50.18,50.33s0,0,.01,0c0,0,0,0-.01,0ZM50.21,50.35s0,0,.01,0c0,0,0,0-.01,0ZM50.29,50.39h0s0,0,0,0c0,0,0,0,0,0ZM50.25,50.37s0,0,0,0c0,0,0,0,0,0ZM50.61,50.5s0,0,0,0c0,0,0,0,0,0ZM50.35,50.42s0,0,0,0c0,0,0,0,0,0ZM50.42,50.44s0,0,0,0c0,0,0,0,0,0ZM50.48,50.46s0,0,0,0c0,0,0,0,0,0ZM50.55,50.48s0,0,0,0c0,0,0,0,0,0ZM50.82,50.54s0,0,.01,0c0,0,0,0,0,0,0,0,0,0,0,0ZM50.68,50.52s0,0,0,0c0,0,0,0,0,0ZM50.75,50.53s0,0,0,0c0,0,0,0,0,0ZM50.86,50.55s0,0,.01,0c0,0,0,0-.01,0ZM50.91,50.55s0,0,.01,0c0,0,0,0-.01,0ZM51.19,50.57s0,0,.01,0c0,0,0,0-.01,0ZM50.96,50.56s0,0,0,0c0,0,0,0,0,0ZM51,50.56s0,0,.01,0c0,0,0,0-.01,0ZM51.05,50.57s0,0,.01,0c0,0,0,0-.01,0ZM51.1,50.57s0,0,0,0c0,0,0,0,0,0ZM51.15,50.57s0,0,.01,0c0,0,0,0-.01,0ZM51.24,50.57h0,0ZM51.29,50.57s0,0,.01,0c0,0,0,0-.01,0ZM51.33,50.57s0,0,.01,0c0,0,0,0-.01,0ZM51.38,50.56s0,0,.01,0c0,0,0,0-.01,0ZM51.43,50.56s0,0,0,0c0,0,0,0,0,0ZM51.47,50.56s0,0,.01,0c0,0,0,0-.01,0ZM51.51,50.55s0,0,.01,0c0,0,0,0-.01,0ZM51.57,50.55h0,0ZM51.61,50.54s0,0,.01,0c0,0,0,0-.01,0ZM51.65,50.53s0,0,.01,0c0,0,0,0-.01,0ZM51.7,50.52s0,0,0,0c0,0,0,0,0,0ZM51.75,50.51s0,0,.01,0c0,0,0,0-.01,0ZM51.79,50.5s0,0,.01,0c0,0,0,0-.01,0ZM51.83,50.49s0,0,.01,0c0,0,0,0-.01,0ZM52.23,50.34s0,0,0,0c0,0,0,0,0,0,0,0,0,0,0,0ZM51.88,50.48s0,0,0,0c0,0,0,0,0,0ZM51.92,50.47s0,0,.01,0c0,0,0,0-.01,0ZM51.96,50.46s0,0,.01,0c0,0,0,0-.01,0ZM52.01,50.44s0,0,0,0c0,0,0,0,0,0ZM52.04,50.42s0,0,.01,0c0,0,0,0-.01,0ZM52.08,50.41s0,0,.01,0c0,0,0,0-.01,0ZM52.12,50.39s0,0,0,0c0,0,0,0,0,0ZM52.16,50.37s0,0,0,0c0,0,0,0,0,0ZM52.2,50.36s0,0,.01,0c0,0,0,0-.01,0ZM52.3,50.3s-.02.01-.03.02c0,0,.02-.01.03-.02ZM52.5,50.15s0,0-.01.01c0,0,0,0,.01-.01ZM52.48,50.17s0,0-.01.01c0,0,0,0,.01-.01ZM52.46,50.18s0,0-.01,0c0,0,0,0,.01,0ZM52.44,50.2s0,0-.01,0c0,0,0,0,.01,0ZM52.42,50.22s0,0-.01,0c0,0,0,0,.01,0ZM52.4,50.23s0,0-.01,0c0,0,0,0,.01,0ZM52.37,50.25s0,0-.01,0c0,0,0,0,.01,0ZM52.35,50.27s0,0-.01,0c0,0,0,0,.01,0ZM52.32,50.28s-.01,0-.02.01c0,0,.01,0,.02-.01ZM52.51,50.14s.01-.01.02-.02c0,0,0,.01-.02.02ZM52.58,50.05s0,0,0,0c0,0,0,0,0,0h0ZM52.52,50.12s.01-.01.02-.02c0,0-.01.01-.02.02ZM52.55,50.1s0,0,.01-.01c0,0,0,0-.01.01ZM52.56,50.08s0,0,0-.01c0,0,0,0,0,.01Z"/>
            <g class="cls-45">
              <path class="cls-38" d="M51.29,50.24s.05.07,0,.1c-.05.03-.12.03-.17,0-.05-.03-.05-.07,0-.1.05-.03.12-.03.17,0Z"/>
            </g>
            <g class="cls-45">
              <path class="cls-38" d="M49.86,49.4s.05.07,0,.1c-.05.03-.12.03-.17,0-.05-.03-.05-.07,0-.1.05-.03.12-.03.17,0Z"/>
            </g>
            <g class="cls-45">
              <path class="cls-38" d="M52.77,49.4s.05.07,0,.1c-.05.03-.12.03-.17,0-.05-.03-.05-.07,0-.1.05-.03.12-.03.17,0Z"/>
            </g>
            <g>
              <g class="cls-45">
                <path class="cls-42" d="M52.37,45.32c.65.37.65.98,0,1.35s-1.68.37-2.33,0c-.65-.37-.65-.98,0-1.35.64-.37,1.68-.37,2.33,0Z"/>
              </g>
              <path class="cls-40" d="M52.85,46v3.84c0,.24-.17.48-.49.67-.64.37-1.68.37-2.33,0-.32-.19-.49-.43-.49-.68v-3.83c0,.25.17.49.49.68.65.37,1.69.37,2.33,0,.32-.19.48-.43.48-.67Z"/>
            </g>
            <path class="cls-52" d="M52.85,45.93c-.04-.88-.76-1.58-1.64-1.58s-1.6.69-1.64,1.56h0c0,.05,0,.1,0,.16.03.22.19.43.48.6.65.37,1.69.37,2.33,0,.29-.17.44-.38.47-.6,0-.05,0-.1,0-.14Z"/>
            <g class="cls-45">
              <g class="cls-45">
                <path class="cls-35" d="M51.61,44.46v.18c0,.06-.04.12-.12.16-.16.09-.41.09-.57,0-.08-.05-.12-.11-.12-.17v-.18c0,.06.04.12.12.17.16.09.41.09.57,0,.08-.05.12-.1.12-.16Z"/>
                <g class="cls-51">
                  <g class="cls-45">
                    <path class="cls-35" d="M51.61,44.46v.18s-.01.06-.03.09v-.18s.03-.06.03-.09h0Z"/>
                    <path class="cls-35" d="M51.57,44.55v.18s-.05.05-.08.07c0,0-.02,0-.03.01v-.18s.02,0,.03-.01c.04-.02.06-.05.08-.07h0Z"/>
                    <path class="cls-35" d="M51.46,44.64v.18c-.08.04-.19.06-.29.05v-.18c.1,0,.21-.01.29-.05h0Z"/>
                    <path class="cls-35" d="M51.17,44.69v.18c-.06,0-.12-.01-.18-.03v-.18c.05.02.11.03.18.03h0Z"/>
                    <path class="cls-35" d="M51,44.66v.18s-.05-.02-.07-.03c-.08-.05-.12-.11-.12-.17v-.18c0,.06.04.12.12.17.02.01.05.02.07.03h0Z"/>
                  </g>
                </g>
              </g>
              <path class="cls-42" d="M51.49,44.3c.16.09.16.24,0,.33-.16.09-.41.09-.57,0-.16-.09-.16-.24,0-.33.16-.09.41-.09.57,0Z"/>
              <path class="cls-79" d="M51.42,44.57s0,0-.01,0c0,0-.02,0-.02.01-.1.04-.23.05-.33,0-.02,0-.03-.01-.05-.02,0,0-.02,0-.02-.01-.08-.06-.08-.14,0-.2,0,0,.01,0,.02-.01.01,0,.03-.02.05-.02.1-.04.23-.03.33.01,0,0,.02,0,.02.01,0,0,.01,0,.02,0,.09.06.09.15,0,.21Z"/>
            </g>
          </g>
        </g>
        <g>
          <g class="cls-45">
            <g>
              <path class="cls-34" d="M65.51,43.61v.63c0,.18-.12.36-.35.49-.47.27-1.23.27-1.71,0-.24-.14-.36-.32-.36-.5v-.63c0,.18.12.36.36.5.47.27,1.24.27,1.71,0,.23-.14.35-.31.35-.49Z"/>
              <g class="cls-30">
                <g class="cls-45">
                  <path class="cls-34" d="M65.51,43.61v.63c0,.18-.12.36-.35.49-.47.27-1.23.27-1.71,0-.24-.14-.36-.32-.36-.5v-.63c0,.18.12.36.36.5.47.27,1.24.27,1.71,0,.23-.14.35-.31.35-.49h0Z"/>
                </g>
              </g>
            </g>
            <path class="cls-5" d="M65.16,43.12c.47.27.48.72,0,.99-.47.27-1.23.27-1.71,0-.47-.27-.48-.72,0-.99.47-.27,1.23-.27,1.71,0Z"/>
          </g>
          <g>
            <path class="cls-41" d="M65.78,42.21h0c.09-.28-.05-.57-.42-.79-.59-.34-1.54-.34-2.13,0-.39.22-.52.54-.39.83.1.28.49,1.35.5,1.37.02.12.12.24.28.34.03.02.06.03.09.05.1.05.22.08.34.1.31.05.66,0,.91-.13,0,0,.01,0,.02-.01.09-.05.15-.11.2-.17l.59-1.54s.01-.03.01-.04h0ZM63.28,42.67s0,0,.01,0c0,0,0,0-.01,0ZM63.31,42.69s0,0,.01,0c0,0,0,0-.01,0ZM63.39,42.73s0,0,0,0c0,0,0,0,0,0,0,0,0,0,0,0ZM63.35,42.71s0,0,0,0c0,0,0,0,0,0ZM63.71,42.84s0,0,0,0c0,0,0,0,0,0ZM63.45,42.76s0,0,0,0c0,0,0,0,0,0ZM63.52,42.78s0,0,0,0c0,0,0,0,0,0ZM63.58,42.8s0,0,0,0c0,0,0,0,0,0ZM63.65,42.82s0,0,0,0c0,0,0,0,0,0ZM63.92,42.88s0,0,.01,0c0,0,0,0,0,0,0,0,0,0,0,0ZM63.78,42.86s0,0,0,0c0,0,0,0,0,0ZM63.85,42.87s0,0,0,0c0,0,0,0,0,0ZM63.96,42.89s0,0,.01,0c0,0,0,0-.01,0ZM64.01,42.89s0,0,.01,0c0,0,0,0-.01,0ZM64.29,42.91s0,0,.01,0c0,0,0,0-.01,0ZM64.06,42.9s0,0,0,0c0,0,0,0,0,0ZM64.1,42.9s0,0,.01,0c0,0,0,0-.01,0ZM64.15,42.91s0,0,.01,0c0,0,0,0-.01,0ZM64.2,42.91s0,0,0,0c0,0,0,0,0,0ZM64.25,42.91s0,0,.01,0c0,0,0,0-.01,0ZM64.34,42.91h0,0ZM64.39,42.91s0,0,.01,0c0,0,0,0-.01,0ZM64.43,42.91s0,0,.01,0c0,0,0,0-.01,0ZM64.48,42.91s0,0,.01,0c0,0,0,0-.01,0ZM64.53,42.9s0,0,0,0c0,0,0,0,0,0ZM64.57,42.9s0,0,.01,0c0,0,0,0-.01,0ZM64.62,42.89s0,0,.01,0c0,0,0,0-.01,0ZM64.67,42.89s0,0,0,0c0,0,0,0,0,0ZM64.71,42.88s0,0,.01,0c0,0,0,0-.01,0ZM64.75,42.87s0,0,.01,0c0,0,0,0-.01,0ZM64.8,42.86s0,0,0,0c0,0,0,0,0,0ZM64.85,42.85s0,0,.01,0c0,0,0,0-.01,0ZM64.89,42.84s0,0,.01,0c0,0,0,0-.01,0ZM64.93,42.83h.01s0,0-.01,0ZM65.33,42.68s0,0,0,0c0,0,0,0,0,0,0,0,0,0,0,0ZM64.98,42.82s0,0,0,0c0,0,0,0,0,0ZM65.02,42.81s0,0,.01,0c0,0,0,0-.01,0ZM65.06,42.8s0,0,.01,0c0,0,0,0-.01,0ZM65.11,42.78s0,0,0,0c0,0,0,0,0,0ZM65.14,42.76s0,0,.01,0c0,0,0,0-.01,0ZM65.18,42.75s0,0,.01,0c0,0,0,0-.01,0ZM65.22,42.73s0,0,0,0c0,0,0,0,0,0ZM65.26,42.71s0,0,0,0c0,0,0,0,0,0ZM65.3,42.7s0,0,.01,0c0,0,0,0-.01,0ZM65.4,42.64s-.02.01-.03.02c0,0,.02-.01.03-.02ZM65.6,42.49s0,0-.01.01c0,0,0,0,.01-.01ZM65.58,42.51s0,0-.01.01c0,0,0,0,.01-.01ZM65.56,42.52s0,0-.01.01c0,0,0,0,.01-.01ZM65.54,42.54s0,0-.01,0c0,0,0,0,.01,0ZM65.52,42.56s0,0-.01,0c0,0,0,0,.01,0ZM65.5,42.57s0,0-.01,0c0,0,0,0,.01,0ZM65.47,42.59s0,0-.01,0c0,0,0,0,.01,0ZM65.45,42.61s0,0-.01,0c0,0,0,0,.01,0ZM65.42,42.62s-.01,0-.02.01c0,0,.01,0,.02-.01ZM65.61,42.48s.01-.01.02-.02c0,0-.01.01-.02.02ZM65.68,42.39s0,0,0,0c0,0,0,0,0,0h0ZM65.62,42.46s.01-.01.02-.02c0,0-.01.01-.02.02ZM65.65,42.44s0,0,.01-.01c0,0,0,0-.01.01ZM65.66,42.42s0,0,0-.01c0,0,0,0,0,.01Z"/>
            <g class="cls-45">
              <path class="cls-38" d="M64.39,42.58s.05.07,0,.1c-.05.03-.12.03-.17,0-.05-.03-.05-.07,0-.1s.12-.03.17,0Z"/>
            </g>
            <g class="cls-45">
              <path class="cls-38" d="M62.96,41.74s.05.07,0,.1c-.05.03-.12.03-.17,0-.05-.03-.05-.07,0-.1.05-.03.12-.03.17,0Z"/>
            </g>
            <g class="cls-45">
              <path class="cls-38" d="M65.87,41.74s.05.07,0,.1c-.05.03-.12.03-.17,0-.05-.03-.05-.07,0-.1s.12-.03.17,0Z"/>
            </g>
            <g>
              <g class="cls-45">
                <path class="cls-42" d="M65.47,37.66c.65.37.65.98,0,1.35-.64.37-1.68.37-2.33,0-.65-.37-.65-.98,0-1.35s1.68-.37,2.33,0Z"/>
              </g>
              <path class="cls-66" d="M65.95,38.34v3.84c0,.24-.17.48-.49.67-.64.37-1.68.37-2.33,0-.32-.19-.49-.43-.49-.68v-3.83c0,.25.17.49.49.68.65.37,1.69.37,2.33,0,.32-.19.48-.43.48-.67Z"/>
            </g>
            <path class="cls-37" d="M65.95,38.27c-.04-.88-.76-1.58-1.64-1.58s-1.6.69-1.64,1.56h0c0,.05,0,.1,0,.16.03.22.19.43.48.6.65.37,1.69.37,2.33,0,.29-.17.44-.38.47-.6,0-.05,0-.1,0-.14Z"/>
            <g class="cls-45">
              <g class="cls-45">
                <path class="cls-35" d="M64.71,36.8v.18c0,.06-.04.12-.12.16-.16.09-.41.09-.57,0-.08-.05-.12-.11-.12-.17v-.18c0,.06.04.12.12.17.16.09.41.09.57,0,.08-.04.12-.1.12-.16Z"/>
                <g class="cls-39">
                  <g class="cls-45">
                    <path class="cls-35" d="M64.71,36.8v.18s-.01.06-.03.09v-.18s.03-.06.03-.09h0Z"/>
                    <path class="cls-35" d="M64.67,36.89v.18s-.05.05-.08.07c0,0-.02,0-.03.01v-.18s.02,0,.03-.01c.04-.02.07-.05.08-.07h0Z"/>
                    <path class="cls-35" d="M64.56,36.98v.18c-.08.04-.19.06-.29.05v-.18c.1,0,.21-.01.29-.05h0Z"/>
                    <path class="cls-35" d="M64.27,37.03v.18c-.06,0-.12-.01-.18-.03v-.18c.05.02.11.03.18.03h0Z"/>
                    <path class="cls-35" d="M64.1,37v.18s-.05-.02-.07-.03c-.08-.05-.12-.11-.12-.17v-.18c0,.06.04.12.12.17.02.01.05.02.07.03h0Z"/>
                  </g>
                </g>
              </g>
              <path class="cls-42" d="M64.59,36.64c.16.09.16.24,0,.33s-.41.09-.57,0c-.16-.09-.16-.24,0-.33.16-.09.41-.09.57,0Z"/>
              <path class="cls-79" d="M64.52,36.91s0,0-.01,0c0,0-.02,0-.02.01-.1.04-.23.05-.33,0-.02,0-.03-.01-.05-.02,0,0-.02,0-.02-.01-.08-.06-.08-.14,0-.2,0,0,.01,0,.02-.01.01,0,.03-.02.05-.02.1-.04.23-.03.33.01,0,0,.02,0,.02.01,0,0,.01,0,.02,0,.09.06.09.15,0,.21Z"/>
            </g>
          </g>
        </g>
        <polygon class="cls-80" points="83.94 67.49 86.4 68.91 86.4 67.6 83.94 66.18 83.94 67.49"/>
        <g>
          <polygon class="cls-24" points="95.29 55.27 93.83 58.76 96.74 57.09 95.29 55.27"/>
          <path class="cls-27" d="M95.29,55.61l1.16,1.46-2.33,1.34,1.16-2.8h0ZM95.29,55.44l-1.31,3.15,2.61-1.51-1.31-1.64h0Z"/>
          <path class="cls-27" d="M95.43,56.17l-.03.98-.23.13-.03-.95.29-.17ZM95.16,57.39s.01-.05.04-.07l.18-.1s.04,0,.04.02v.21s-.01.05-.04.06l-.18.1s-.04,0-.04-.02v-.21Z"/>
        </g>
        <g>
          <polygon class="cls-24" points="98 60.48 93.78 62.92 93.78 60.23 98 57.8 98 60.48"/>
          <path class="cls-27" d="M93.96,62.62v-2.3l3.85-2.22v2.3l-3.85,2.22ZM94.1,60.4v1.99l3.58-2.07v-1.99l-3.58,2.07Z"/>
        </g>
        <g>
          <g class="cls-45">
            <g>
              <path class="cls-34" d="M48.1,47.97v.81c0,.23-.16.46-.45.63-.6.35-1.58.35-2.19,0-.31-.18-.46-.41-.46-.64v-.81c0,.23.16.46.46.64.61.35,1.59.35,2.19,0,.3-.17.45-.4.45-.63Z"/>
              <g class="cls-71">
                <g class="cls-45">
                  <path class="cls-34" d="M48.1,47.97v.81c0,.23-.16.46-.45.63-.6.35-1.58.35-2.19,0-.31-.18-.46-.41-.46-.64v-.81c0,.23.16.46.46.64.61.35,1.59.35,2.19,0,.3-.17.45-.4.45-.63h0Z"/>
                </g>
              </g>
            </g>
            <path class="cls-5" d="M47.64,47.33c.61.35.61.92,0,1.27-.6.35-1.58.35-2.19,0-.61-.35-.61-.92,0-1.27.6-.35,1.58-.35,2.19,0Z"/>
          </g>
          <g class="cls-45">
            <g>
              <path class="cls-57" d="M47.51,46.96v.94c0,.14-.1.28-.28.39-.37.22-.98.22-1.36,0-.19-.11-.28-.25-.28-.4v-.94c0,.14.1.29.29.4.38.22.99.22,1.36,0,.19-.11.28-.25.28-.39Z"/>
              <g class="cls-58">
                <g class="cls-45">
                  <path class="cls-55" d="M47.51,46.96v.94c0,.14-.1.28-.28.39-.37.22-.98.22-1.36,0-.19-.11-.28-.25-.28-.4v-.94c0,.14.1.29.29.4.38.22.99.22,1.36,0,.19-.11.28-.25.28-.39h0Z"/>
                </g>
              </g>
            </g>
            <path class="cls-55" d="M47.23,46.56c.38.22.38.57,0,.79-.38.22-.98.22-1.36,0-.38-.22-.38-.57,0-.79.37-.22.98-.22,1.36,0Z"/>
          </g>
          <g>
            <path class="cls-57" d="M47.79,47.16c-.02-.1-.18-.38-.18-.38,0,.17-.05.54-.27.66-.44.25-1.15.25-1.59,0-.22-.13-.29-.48-.29-.65,0,0-.15.26-.18.36-.04.18.12.37.37.51.49.28,1.28.28,1.76,0,.24-.14.4-.33.36-.51Z"/>
            <g class="cls-45">
              <path class="cls-55" d="M47.34,46.52c.44.25.44.67,0,.92-.44.25-1.15.25-1.59,0-.44-.25-.44-.67,0-.92.44-.25,1.15-.25,1.59,0Z"/>
            </g>
          </g>
          <g class="cls-45">
            <g>
              <path class="cls-57" d="M47.51,45.93v.94c0,.14-.1.28-.28.39-.37.22-.98.22-1.36,0-.19-.11-.28-.25-.28-.4v-.94c0,.14.1.29.29.4.38.22.99.22,1.36,0,.19-.11.28-.25.28-.39Z"/>
              <g class="cls-9">
                <g class="cls-45">
                  <path class="cls-55" d="M47.51,45.93v.94c0,.14-.1.28-.28.39-.37.22-.98.22-1.36,0-.19-.11-.28-.25-.28-.4v-.94c0,.14.1.29.29.4.38.22.99.22,1.36,0,.19-.11.28-.25.28-.39h0Z"/>
                </g>
              </g>
            </g>
            <path class="cls-55" d="M47.23,45.53c.38.22.38.57,0,.79-.38.22-.98.22-1.36,0-.38-.22-.38-.57,0-.79.37-.22.98-.22,1.36,0Z"/>
          </g>
          <g>
            <path class="cls-57" d="M47.79,45.98c-.02-.1-.18-.38-.18-.38,0,.17-.05.54-.27.66-.44.25-1.15.25-1.59,0-.22-.13-.29-.48-.29-.65,0,0-.15.26-.18.36-.04.18.12.37.37.51.49.28,1.28.28,1.76,0,.24-.14.4-.33.36-.51Z"/>
            <g class="cls-45">
              <path class="cls-55" d="M47.34,45.34c.44.25.44.67,0,.92-.44.25-1.15.25-1.59,0-.44-.25-.44-.67,0-.92.44-.25,1.15-.25,1.59,0Z"/>
            </g>
          </g>
          <g class="cls-45">
            <g>
              <path class="cls-57" d="M47.51,44.69v.94c0,.14-.1.28-.28.39-.37.22-.98.22-1.36,0-.19-.11-.28-.25-.28-.4v-.94c0,.14.1.29.29.4.38.22.99.22,1.36,0,.19-.11.28-.25.28-.39Z"/>
              <g class="cls-63">
                <g class="cls-45">
                  <path class="cls-55" d="M47.51,44.69v.94c0,.14-.1.28-.28.39-.37.22-.98.22-1.36,0-.19-.11-.28-.25-.28-.4v-.94c0,.14.1.29.29.4.38.22.99.22,1.36,0,.19-.11.28-.25.28-.39h0Z"/>
                </g>
              </g>
            </g>
            <path class="cls-55" d="M47.23,44.29c.38.22.38.57,0,.79-.38.22-.98.22-1.36,0-.38-.22-.38-.57,0-.79.37-.22.98-.22,1.36,0Z"/>
          </g>
          <g class="cls-45">
            <g>
              <path class="cls-57" d="M47.05,43.53l.75,1.22c0,.18-.12.37-.36.51-.49.28-1.28.28-1.77,0-.25-.14-.37-.33-.37-.52l.75-1.22c0,.07.05.15.15.21.2.11.51.11.71,0,.1-.06.15-.13.15-.2Z"/>
              <g class="cls-12">
                <g class="cls-45">
                  <path class="cls-57" d="M47.05,43.53l.75,1.22c0,.18-.12.37-.36.51-.49.28-1.28.28-1.77,0-.25-.14-.37-.33-.37-.52l.75-1.22c0,.07.05.15.15.21.2.11.51.11.71,0,.1-.06.15-.13.15-.2h0Z"/>
                </g>
              </g>
            </g>
            <path class="cls-55" d="M46.9,43.32c.2.11.2.3,0,.41-.19.11-.51.11-.71,0-.2-.11-.2-.3,0-.41.19-.11.51-.11.71,0Z"/>
          </g>
          <g class="cls-45">
            <g>
              <path class="cls-3" d="M47.05,43v.52c0,.07-.05.15-.14.2-.2.11-.51.11-.71,0-.1-.06-.15-.13-.15-.21v-.49c0,.07.05.15.15.21.2.11.51.11.71,0,.1-.06.14-.16.14-.23Z"/>
              <g class="cls-2">
                <g class="cls-45">
                  <path class="cls-3" d="M47.05,43v.52c0,.07-.05.15-.14.2-.2.11-.51.11-.71,0-.1-.06-.15-.13-.15-.21v-.49c0,.07.05.15.15.21.2.11.51.11.71,0,.1-.06.14-.16.14-.23h0Z"/>
                </g>
              </g>
            </g>
          </g>
          <path class="cls-3" d="M47.05,43.03c0-.28-.22-.5-.5-.5s-.5.22-.5.5.22.5.5.5.5-.22.5-.5Z"/>
        </g>
        <g>
          <polygon class="cls-55" points="102.73 81.22 102.74 88.54 100.1 90.07 100.08 82.74 102.73 81.22"/>
          <polygon class="cls-55" points="108.18 78.05 108.2 85.37 105.55 86.9 105.54 79.57 108.18 78.05"/>
        </g>
        <g class="cls-45">
          <polygon class="cls-55" points="90.49 68.4 100.47 62.59 100.47 66.17 90.48 71.98 90.49 68.4"/>
          <polygon class="cls-67" points="88.59 67.3 98.57 61.49 100.47 62.59 90.49 68.4 88.59 67.3"/>
          <polygon class="cls-57" points="90.49 68.4 90.48 71.98 88.59 70.88 88.59 67.3 90.49 68.4"/>
        </g>
      </g>
      <g>
        <g class="cls-45">
          <polygon class="cls-10" points="11.31 47.65 3.87 43.32 4 89.19 11.44 93.52 11.31 47.65"/>
          <polygon class="cls-60" points="31.64 35.92 24.19 31.59 3.87 43.32 11.31 47.65 31.64 35.92"/>
          <polygon class="cls-15" points="11.31 47.65 11.44 93.52 31.77 81.79 31.64 35.92 11.31 47.65"/>
        </g>
        <g>
          <g>
            <g>
              <polygon class="cls-80" points="22.5 47.12 27.83 53.84 17.18 59.99 22.5 47.12"/>
              <path class="cls-27" d="M22.5,48.39l4.26,5.38-8.53,4.92,4.26-10.3h0ZM22.5,47.75l-4.79,11.59,9.59-5.54-4.79-6.05h0Z"/>
            </g>
            <polygon class="cls-27" points="22.57 49.73 21.99 52.7 23.7 51.71 22.11 55.83 22.54 53.05 20.92 53.99 22.57 49.73"/>
          </g>
          <polygon class="cls-5" points="29.22 60.46 14.46 68.99 14.46 63.91 29.22 55.38 29.22 60.46"/>
        </g>
        <g>
          <g>
            <polygon class="cls-55" points="26.68 76.25 30.13 74.26 30.13 73.77 26.68 75.76 26.68 76.25"/>
            <polygon class="cls-55" points="26.68 77.09 30.13 75.1 30.13 74.61 26.68 76.6 26.68 77.09"/>
            <polygon class="cls-55" points="26.68 77.94 30.13 75.95 30.13 75.46 26.68 77.45 26.68 77.94"/>
            <polygon class="cls-55" points="26.68 79.64 30.13 77.64 30.13 77.16 26.68 79.15 26.68 79.64"/>
            <polygon class="cls-55" points="26.68 80.48 30.13 78.49 30.13 78 26.68 79.99 26.68 80.48"/>
            <polygon class="cls-55" points="26.68 81.33 30.13 79.34 30.13 78.85 26.68 80.84 26.68 81.33"/>
            <polygon class="cls-55" points="26.68 78.79 30.13 76.8 30.13 76.31 26.68 78.3 26.68 78.79"/>
          </g>
          <g>
            <polygon class="cls-55" points="22.3 78.77 25.75 76.78 25.75 76.29 22.3 78.28 22.3 78.77"/>
            <polygon class="cls-55" points="22.3 79.62 25.75 77.63 25.75 77.14 22.3 79.13 22.3 79.62"/>
            <polygon class="cls-55" points="22.3 80.47 25.75 78.48 25.75 77.99 22.3 79.98 22.3 80.47"/>
            <polygon class="cls-55" points="22.3 82.16 25.75 80.17 25.75 79.68 22.3 81.67 22.3 82.16"/>
            <polygon class="cls-55" points="22.3 83.01 25.75 81.02 25.75 80.53 22.3 82.52 22.3 83.01"/>
            <polygon class="cls-55" points="22.3 83.86 25.75 81.87 25.75 81.38 22.3 83.37 22.3 83.86"/>
            <polygon class="cls-55" points="22.3 81.32 25.75 79.32 25.75 78.83 22.3 80.83 22.3 81.32"/>
          </g>
          <g>
            <polygon class="cls-55" points="17.93 81.3 21.38 79.31 21.38 78.82 17.93 80.81 17.93 81.3"/>
            <polygon class="cls-55" points="17.93 82.15 21.38 80.16 21.38 79.67 17.93 81.66 17.93 82.15"/>
            <polygon class="cls-55" points="17.93 83 21.38 81 21.38 80.51 17.93 82.51 17.93 83"/>
            <polygon class="cls-55" points="17.93 84.69 21.38 82.7 21.38 82.21 17.93 84.2 17.93 84.69"/>
            <polygon class="cls-55" points="17.93 85.54 21.38 83.55 21.38 83.06 17.93 85.05 17.93 85.54"/>
            <polygon class="cls-55" points="17.93 86.38 21.38 84.39 21.38 83.9 17.93 85.9 17.93 86.38"/>
            <polygon class="cls-55" points="17.93 83.84 21.38 81.85 21.38 81.36 17.93 83.35 17.93 83.84"/>
          </g>
          <g>
            <polygon class="cls-55" points="13.55 83.83 17 81.84 17 81.35 13.55 83.34 13.55 83.83"/>
            <polygon class="cls-55" points="13.55 84.67 17 82.68 17 82.19 13.55 84.19 13.55 84.67"/>
            <polygon class="cls-55" points="13.55 85.52 17 83.53 17 83.04 13.55 85.03 13.55 85.52"/>
            <polygon class="cls-55" points="13.55 87.22 17 85.23 17 84.74 13.55 86.73 13.55 87.22"/>
            <polygon class="cls-55" points="13.55 88.06 17 86.07 17 85.58 13.55 87.57 13.55 88.06"/>
            <polygon class="cls-55" points="13.55 88.91 17 86.92 17 86.43 13.55 88.42 13.55 88.91"/>
            <polygon class="cls-55" points="13.55 86.37 17 84.38 17 83.89 13.55 85.88 13.55 86.37"/>
          </g>
          <polygon class="cls-55" points="13.09 82.77 30.59 72.67 30.59 72.18 13.09 82.28 13.09 82.77"/>
          <polygon class="cls-55" points="13.09 90.61 30.59 80.51 30.59 80.02 13.09 90.12 13.09 90.61"/>
        </g>
      </g>
    </g>
  </g>
</svg>